<?xml version="1.0" encoding="utf-8" standalone="no"?>
<!DOCTYPE svg PUBLIC "-//W3C//DTD SVG 1.1//EN"
  "http://www.w3.org/Graphics/SVG/1.1/DTD/svg11.dtd">
<svg xmlns:xlink="http://www.w3.org/1999/xlink" width="412.034139pt" height="328.728176pt" viewBox="0 0 412.034139 328.728176" xmlns="http://www.w3.org/2000/svg" version="1.1">
 <metadata>
  <rdf:RDF xmlns:dc="http://purl.org/dc/elements/1.1/" xmlns:cc="http://creativecommons.org/ns#" xmlns:rdf="http://www.w3.org/1999/02/22-rdf-syntax-ns#">
   <cc:Work>
    <dc:type rdf:resource="http://purl.org/dc/dcmitype/StillImage"/>
    <dc:date>2023-03-15T16:59:51.545841</dc:date>
    <dc:format>image/svg+xml</dc:format>
    <dc:creator>
     <cc:Agent>
      <dc:title>Matplotlib v3.7.1, https://matplotlib.org/</dc:title>
     </cc:Agent>
    </dc:creator>
   </cc:Work>
  </rdf:RDF>
 </metadata>
 <defs>
  <style type="text/css">*{stroke-linejoin: round; stroke-linecap: butt}</style>
 </defs>
 <g id="figure_1">
  <g id="patch_1">
   <path d="M 0 328.728176 
L 412.034139 328.728176 
L 412.034139 0 
L 0 0 
z
" style="fill: #ffffff"/>
  </g>
  <g id="axes_1">
   <g id="patch_2">
    <path d="M 47.714139 289.274625 
L 404.834139 289.274625 
L 404.834139 23.162625 
L 47.714139 23.162625 
z
" style="fill: #ffffff"/>
   </g>
   <g id="patch_3">
    <path d="M 63.946866 289.274625 
L 75.193559 289.274625 
L 75.193559 283.138463 
L 63.946866 283.138463 
z
" clip-path="url(#p8231aa9773)" style="fill: url(#hb4d70d8fc1); stroke: #9932cc; stroke-width: 0.5; stroke-linejoin: miter"/>
   </g>
   <g id="patch_4">
    <path d="M 138.924821 289.274625 
L 150.171514 289.274625 
L 150.171514 279.368903 
L 138.924821 279.368903 
z
" clip-path="url(#p8231aa9773)" style="fill: url(#hb4d70d8fc1); stroke: #9932cc; stroke-width: 0.5; stroke-linejoin: miter"/>
   </g>
   <g id="patch_5">
    <path d="M 213.902776 289.274625 
L 225.14947 289.274625 
L 225.14947 256.127159 
L 213.902776 256.127159 
z
" clip-path="url(#p8231aa9773)" style="fill: url(#hb4d70d8fc1); stroke: #9932cc; stroke-width: 0.5; stroke-linejoin: miter"/>
   </g>
   <g id="patch_6">
    <path d="M 288.880731 289.274625 
L 300.127425 289.274625 
L 300.127425 269.938603 
L 288.880731 269.938603 
z
" clip-path="url(#p8231aa9773)" style="fill: url(#hb4d70d8fc1); stroke: #9932cc; stroke-width: 0.5; stroke-linejoin: miter"/>
   </g>
   <g id="patch_7">
    <path d="M 363.858686 289.274625 
L 375.10538 289.274625 
L 375.10538 253.36487 
L 363.858686 253.36487 
z
" clip-path="url(#p8231aa9773)" style="fill: url(#hb4d70d8fc1); stroke: #9932cc; stroke-width: 0.5; stroke-linejoin: miter"/>
   </g>
   <g id="patch_8">
    <path d="M 77.442898 289.274625 
L 88.689591 289.274625 
L 88.689591 283.155635 
L 77.442898 283.155635 
z
" clip-path="url(#p8231aa9773)" style="fill: url(#he8bc26b41a); stroke: #2e8b57; stroke-width: 0.5; stroke-linejoin: miter"/>
   </g>
   <g id="patch_9">
    <path d="M 152.420853 289.274625 
L 163.667546 289.274625 
L 163.667546 261.487299 
L 152.420853 261.487299 
z
" clip-path="url(#p8231aa9773)" style="fill: url(#he8bc26b41a); stroke: #2e8b57; stroke-width: 0.5; stroke-linejoin: miter"/>
   </g>
   <g id="patch_10">
    <path d="M 227.398808 289.274625 
L 238.645501 289.274625 
L 238.645501 207.787104 
L 227.398808 207.787104 
z
" clip-path="url(#p8231aa9773)" style="fill: url(#he8bc26b41a); stroke: #2e8b57; stroke-width: 0.5; stroke-linejoin: miter"/>
   </g>
   <g id="patch_11">
    <path d="M 302.376763 289.274625 
L 313.623457 289.274625 
L 313.623457 231.957132 
L 302.376763 231.957132 
z
" clip-path="url(#p8231aa9773)" style="fill: url(#he8bc26b41a); stroke: #2e8b57; stroke-width: 0.5; stroke-linejoin: miter"/>
   </g>
   <g id="patch_12">
    <path d="M 377.354718 289.274625 
L 388.601412 289.274625 
L 388.601412 35.834625 
L 377.354718 35.834625 
z
" clip-path="url(#p8231aa9773)" style="fill: url(#he8bc26b41a); stroke: #2e8b57; stroke-width: 0.5; stroke-linejoin: miter"/>
   </g>
   <g id="matplotlib.axis_1">
    <g id="xtick_1">
     <g id="line2d_1">
      <defs>
       <path id="m8e0d172709" d="M 0 0 
L 0 3.5 
" style="stroke: #000000; stroke-width: 0.8"/>
      </defs>
      <g>
       <use xlink:href="#m8e0d172709" x="76.318229" y="289.274625" style="stroke: #000000; stroke-width: 0.8"/>
      </g>
     </g>
     <g id="text_1">
      <!-- Vadalog-I -->
      <g transform="translate(53.23493 304.576805) scale(0.12 -0.12)">
       <defs>
        <path id="CMSS17-56" d="M 3910 4416 
L 3411 4416 
L 2304 1362 
C 2272 1273 2074 688 2035 484 
L 2029 484 
C 1978 726 1773 1292 1664 1604 
L 922 3672 
L 646 4416 
L 83 4416 
L 1715 0 
L 2278 0 
L 3910 4416 
z
" transform="scale(0.015625)"/>
        <path id="CMSS17-61" d="M 2406 1791 
C 2406 2392 1978 2808 1402 2808 
C 1120 2808 813 2757 461 2553 
L 499 2135 
C 659 2248 934 2432 1395 2432 
C 1722 2432 1920 2180 1920 1782 
L 1920 1536 
C 896 1536 256 1238 256 726 
C 256 461 416 -64 947 -64 
C 1043 -64 1562 -64 1933 217 
L 1933 -19 
L 2406 -19 
L 2406 1791 
z
M 1920 816 
C 1920 701 1920 548 1728 434 
C 1562 325 1350 325 1261 325 
C 941 325 723 511 723 744 
C 723 1211 1722 1211 1920 1211 
L 1920 816 
z
" transform="scale(0.015625)"/>
        <path id="CMSS17-64" d="M 2611 4416 
L 2138 4416 
L 2138 2438 
C 1939 2603 1613 2756 1254 2756 
C 672 2756 211 2131 211 1347 
C 211 562 666 -64 1235 -64 
C 1677 -64 1971 172 2125 306 
L 2125 -13 
L 2611 -13 
L 2611 4416 
z
M 2125 836 
C 2125 747 2125 653 1926 482 
C 1798 375 1645 325 1498 325 
C 1152 325 698 576 698 1340 
C 698 2134 1210 2368 1562 2368 
C 1798 2368 1990 2254 2125 2065 
L 2125 836 
z
" transform="scale(0.015625)"/>
        <path id="CMSS17-6c" d="M 947 4416 
L 474 4416 
L 474 0 
L 947 0 
L 947 4416 
z
" transform="scale(0.015625)"/>
        <path id="CMSS17-6f" d="M 2829 1356 
C 2829 2176 2221 2816 1504 2816 
C 768 2816 173 2157 173 1356 
C 173 544 787 -64 1498 -64 
C 2227 -64 2829 563 2829 1356 
z
M 1504 337 
C 1050 337 659 709 659 1408 
C 659 2151 1114 2427 1498 2427 
C 1914 2427 2342 2126 2342 1408 
C 2342 683 1926 337 1504 337 
z
" transform="scale(0.015625)"/>
        <path id="CMSS17-67" d="M 2848 2808 
C 2483 2808 2170 2738 1914 2617 
C 1702 2777 1485 2808 1338 2808 
C 781 2808 358 2349 358 1814 
C 358 1468 550 1207 563 1195 
C 448 1035 384 863 384 672 
C 384 448 474 289 544 200 
C 211 -3 166 -314 166 -435 
C 166 -898 749 -1280 1498 -1280 
C 2253 -1280 2835 -898 2835 -428 
C 2835 448 1856 448 1587 448 
L 1069 448 
C 973 448 717 448 717 791 
C 717 921 774 1004 781 1010 
C 877 940 1075 832 1338 832 
C 1869 832 2310 1278 2310 1827 
C 2310 2132 2170 2355 2112 2432 
L 2131 2432 
C 2150 2432 2419 2432 2515 2432 
C 2720 2432 2739 2429 2918 2419 
L 2848 2808 
z
M 1338 1182 
C 1120 1182 813 1315 813 1823 
C 813 2375 1165 2464 1331 2464 
C 1549 2464 1856 2331 1856 1823 
C 1856 1271 1504 1182 1338 1182 
z
M 1581 -10 
C 1734 -10 2381 -10 2381 -442 
C 2381 -714 1984 -929 1504 -929 
C 1018 -929 621 -720 621 -435 
C 621 -403 621 -10 1062 -10 
L 1581 -10 
z
" transform="scale(0.015625)"/>
        <path id="CMSS17-2d" d="M 1664 1216 
L 1664 1585 
L 64 1585 
L 64 1216 
L 1664 1216 
z
" transform="scale(0.015625)"/>
        <path id="CMSS17-49" d="M 1094 4416 
L 557 4416 
L 557 0 
L 1094 0 
L 1094 4416 
z
" transform="scale(0.015625)"/>
       </defs>
       <use xlink:href="#CMSS17-56" transform="scale(0.996264)"/>
       <use xlink:href="#CMSS17-61" transform="translate(59.615401 0) scale(0.996264)"/>
       <use xlink:href="#CMSS17-64" transform="translate(104.537322 0) scale(0.996264)"/>
       <use xlink:href="#CMSS17-61" transform="translate(152.742265 0) scale(0.996264)"/>
       <use xlink:href="#CMSS17-6c" transform="translate(197.664185 0) scale(0.996264)"/>
       <use xlink:href="#CMSS17-6f" transform="translate(219.844908 0) scale(0.996264)"/>
       <use xlink:href="#CMSS17-67" transform="translate(266.688532 0) scale(0.996264)"/>
       <use xlink:href="#CMSS17-2d" transform="translate(313.532155 0) scale(0.996264)"/>
       <use xlink:href="#CMSS17-49" transform="translate(344.761268 0) scale(0.996264)"/>
      </g>
     </g>
    </g>
    <g id="xtick_2">
     <g id="line2d_2">
      <g>
       <use xlink:href="#m8e0d172709" x="151.296184" y="289.274625" style="stroke: #000000; stroke-width: 0.8"/>
      </g>
     </g>
     <g id="text_2">
      <!-- Vadalog-P -->
      <g transform="translate(126.082013 304.576805) scale(0.12 -0.12)">
       <defs>
        <path id="CMSS17-50" d="M 2106 1856 
C 2874 1856 3501 2453 3501 3158 
C 3501 3850 2899 4453 2067 4453 
L 570 4453 
L 570 0 
L 1107 0 
L 1107 1856 
L 2106 1856 
z
M 1926 4096 
C 2669 4096 2995 3627 2995 3157 
C 2995 2720 2694 2226 1926 2226 
L 1094 2226 
L 1094 4096 
L 1926 4096 
z
" transform="scale(0.015625)"/>
       </defs>
       <use xlink:href="#CMSS17-56" transform="scale(0.996264)"/>
       <use xlink:href="#CMSS17-61" transform="translate(59.615401 0) scale(0.996264)"/>
       <use xlink:href="#CMSS17-64" transform="translate(104.537322 0) scale(0.996264)"/>
       <use xlink:href="#CMSS17-61" transform="translate(152.742265 0) scale(0.996264)"/>
       <use xlink:href="#CMSS17-6c" transform="translate(197.664185 0) scale(0.996264)"/>
       <use xlink:href="#CMSS17-6f" transform="translate(219.844908 0) scale(0.996264)"/>
       <use xlink:href="#CMSS17-67" transform="translate(266.688532 0) scale(0.996264)"/>
       <use xlink:href="#CMSS17-2d" transform="translate(313.532155 0) scale(0.996264)"/>
       <use xlink:href="#CMSS17-50" transform="translate(344.761268 0) scale(0.996264)"/>
      </g>
     </g>
    </g>
    <g id="xtick_3">
     <g id="line2d_3">
      <g>
       <use xlink:href="#m8e0d172709" x="226.274139" y="289.274625" style="stroke: #000000; stroke-width: 0.8"/>
      </g>
     </g>
     <g id="text_3">
      <!-- DLV -->
      <g transform="translate(215.68552 304.576805) scale(0.12 -0.12)">
       <defs>
        <path id="CMSS17-44" d="M 570 4416 
L 570 0 
L 2144 0 
C 3194 0 4000 980 4000 2170 
C 4000 3398 3194 4416 2144 4416 
L 570 4416 
z
M 1094 357 
L 1094 4059 
L 2003 4059 
C 2861 4059 3475 3277 3475 2170 
C 3475 1107 2867 357 2003 357 
L 1094 357 
z
" transform="scale(0.015625)"/>
        <path id="CMSS17-4c" d="M 1670 414 
C 1594 414 1517 414 1440 414 
L 1101 414 
L 1101 4416 
L 563 4416 
L 563 0 
L 3002 0 
L 3002 414 
L 1670 414 
z
" transform="scale(0.015625)"/>
       </defs>
       <use xlink:href="#CMSS17-44" transform="scale(0.996264)"/>
       <use xlink:href="#CMSS17-4c" transform="translate(67.542842 0) scale(0.996264)"/>
       <use xlink:href="#CMSS17-56" transform="translate(107.820238 0) scale(0.996264)"/>
      </g>
     </g>
    </g>
    <g id="xtick_4">
     <g id="line2d_4">
      <g>
       <use xlink:href="#m8e0d172709" x="301.252094" y="289.274625" style="stroke: #000000; stroke-width: 0.8"/>
      </g>
     </g>
     <g id="text_4">
      <!-- RDFox -->
      <g transform="translate(284.672133 304.576805) scale(0.12 -0.12)">
       <defs>
        <path id="CMSS17-52" d="M 2522 2109 
L 2534 2115 
C 3533 2459 3539 3147 3539 3268 
C 3539 3873 2925 4453 2003 4453 
L 570 4453 
L 570 32 
L 1094 32 
L 1094 2048 
L 2035 2048 
L 3168 32 
L 3706 32 
L 2522 2109 
z
M 1094 2437 
L 1094 4096 
L 1933 4096 
C 2746 4096 3034 3637 3034 3267 
C 3034 2922 2778 2437 1933 2437 
L 1094 2437 
z
" transform="scale(0.015625)"/>
        <path id="CMSS17-46" d="M 2918 1984 
L 2918 2373 
L 1101 2373 
L 1101 3968 
L 1882 3968 
C 1958 3968 2035 3968 2112 3968 
L 3168 3968 
L 3168 4375 
L 563 4375 
L 563 -32 
L 1101 -32 
L 1101 1984 
L 2918 1984 
z
" transform="scale(0.015625)"/>
        <path id="CMSS17-78" d="M 1587 1414 
L 2656 2739 
L 2099 2739 
L 1363 1777 
L 602 2739 
L 32 2739 
L 1139 1414 
L 0 0 
L 563 0 
L 1363 1121 
L 2195 0 
L 2758 0 
L 1587 1414 
z
" transform="scale(0.015625)"/>
       </defs>
       <use xlink:href="#CMSS17-52" transform="scale(0.996264)"/>
       <use xlink:href="#CMSS17-44" transform="translate(60.416155 0) scale(0.996264)"/>
       <use xlink:href="#CMSS17-46" transform="translate(127.958997 0) scale(0.996264)"/>
       <use xlink:href="#CMSS17-6f" transform="translate(178.646102 0) scale(0.996264)"/>
       <use xlink:href="#CMSS17-78" transform="translate(222.887271 0) scale(0.996264)"/>
      </g>
     </g>
    </g>
    <g id="xtick_5">
     <g id="line2d_5">
      <g>
       <use xlink:href="#m8e0d172709" x="376.230049" y="289.274625" style="stroke: #000000; stroke-width: 0.8"/>
      </g>
     </g>
     <g id="text_5">
      <!-- Llunatic -->
      <g transform="translate(356.792784 304.576805) scale(0.12 -0.12)">
       <defs>
        <path id="CMSS17-75" d="M 2618 2739 
L 2131 2739 
L 2131 972 
C 2131 498 1786 306 1421 306 
C 998 306 960 447 960 709 
L 960 2739 
L 474 2739 
L 474 678 
C 474 179 646 -64 1088 -64 
C 1306 -64 1798 -13 2144 306 
L 2144 0 
L 2618 0 
L 2618 2739 
z
" transform="scale(0.015625)"/>
        <path id="CMSS17-6e" d="M 2618 1877 
C 2618 2283 2522 2816 1798 2816 
C 1389 2816 1120 2606 941 2389 
L 941 2758 
L 474 2758 
L 474 0 
L 960 0 
L 960 1559 
C 960 1964 1114 2428 1549 2428 
C 2112 2428 2131 2048 2131 1829 
L 2131 0 
L 2618 0 
L 2618 1877 
z
" transform="scale(0.015625)"/>
        <path id="CMSS17-74" d="M 1069 2368 
L 1901 2368 
L 1901 2737 
L 1069 2737 
L 1069 3520 
L 614 3520 
L 614 2737 
L 109 2737 
L 109 2368 
L 602 2368 
L 602 749 
C 602 384 685 -64 1107 -64 
C 1427 -64 1722 25 2003 172 
L 1901 548 
C 1747 414 1562 337 1363 337 
C 1082 337 1069 696 1069 856 
L 1069 2368 
z
" transform="scale(0.015625)"/>
        <path id="CMSS17-69" d="M 979 4183 
L 442 4183 
L 442 3648 
L 979 3648 
L 979 4183 
z
M 947 2739 
L 474 2739 
L 474 0 
L 947 0 
L 947 2739 
z
" transform="scale(0.015625)"/>
        <path id="CMSS17-63" d="M 2464 2541 
C 2464 2585 2170 2714 2093 2739 
C 1882 2816 1613 2816 1542 2816 
C 710 2816 211 2093 211 1363 
C 211 595 768 -64 1517 -64 
C 1946 -64 2253 76 2502 242 
L 2464 664 
C 2189 453 1869 337 1523 337 
C 1024 337 698 774 698 1369 
C 698 1831 909 2414 1549 2414 
C 1901 2414 2099 2343 2394 2145 
L 2464 2541 
z
" transform="scale(0.015625)"/>
       </defs>
       <use xlink:href="#CMSS17-4c" transform="scale(0.996264)"/>
       <use xlink:href="#CMSS17-6c" transform="translate(50.687105 0) scale(0.996264)"/>
       <use xlink:href="#CMSS17-75" transform="translate(72.867828 0) scale(0.996264)"/>
       <use xlink:href="#CMSS17-6e" transform="translate(121.072772 0) scale(0.996264)"/>
       <use xlink:href="#CMSS17-61" transform="translate(169.277715 0) scale(0.996264)"/>
       <use xlink:href="#CMSS17-74" transform="translate(214.199635 0) scale(0.996264)"/>
       <use xlink:href="#CMSS17-69" transform="translate(248.031202 0) scale(0.996264)"/>
       <use xlink:href="#CMSS17-63" transform="translate(270.211925 0) scale(0.996264)"/>
      </g>
     </g>
    </g>
    <g id="text_6">
     <!-- Tools -->
     <g transform="translate(213.133984 319.20358) scale(0.12 -0.12)">
      <defs>
       <path id="CMSS17-54" d="M 2317 3968 
L 2848 3968 
C 2925 3968 3002 3968 3078 3968 
L 3878 3968 
L 3878 4376 
L 218 4376 
L 218 3968 
L 1018 3968 
C 1094 3968 1171 3968 1248 3968 
L 1779 3968 
L 1779 -32 
L 2317 -32 
L 2317 3968 
z
" transform="scale(0.015625)"/>
       <path id="CMSS17-73" d="M 2061 2627 
C 1683 2807 1389 2807 1197 2807 
C 742 2807 198 2648 198 2003 
C 198 1359 902 1218 1094 1179 
C 1389 1122 1715 1058 1715 740 
C 1715 337 1254 337 1171 337 
C 915 337 563 407 243 638 
L 166 210 
C 531 0 883 -64 1178 -64 
C 1965 -64 2163 416 2163 781 
C 2163 1094 1984 1305 1862 1401 
C 1651 1568 1574 1587 1050 1696 
C 960 1709 646 1779 646 2066 
C 646 2432 1050 2432 1139 2432 
C 1555 2432 1811 2303 1984 2208 
L 2061 2627 
z
" transform="scale(0.015625)"/>
      </defs>
      <use xlink:href="#CMSS17-54" transform="scale(0.996264)"/>
      <use xlink:href="#CMSS17-6f" transform="translate(56.012199 0) scale(0.996264)"/>
      <use xlink:href="#CMSS17-6f" transform="translate(105.458261 0) scale(0.996264)"/>
      <use xlink:href="#CMSS17-6c" transform="translate(152.301884 0) scale(0.996264)"/>
      <use xlink:href="#CMSS17-73" transform="translate(174.482607 0) scale(0.996264)"/>
     </g>
    </g>
   </g>
   <g id="matplotlib.axis_2">
    <g id="ytick_1">
     <g id="line2d_6">
      <defs>
       <path id="mc4d3cfc846" d="M 0 0 
L -3.5 0 
" style="stroke: #000000; stroke-width: 0.8"/>
      </defs>
      <g>
       <use xlink:href="#mc4d3cfc846" x="47.714139" y="289.274625" style="stroke: #000000; stroke-width: 0.8"/>
      </g>
     </g>
     <g id="text_7">
      <!-- $\mathdefault{0}$ -->
      <g transform="translate(34.861149 293.425715) scale(0.12 -0.12)">
       <defs>
        <path id="CMR17-30" d="M 2688 2025 
C 2688 2416 2682 3080 2413 3591 
C 2176 4039 1798 4198 1466 4198 
C 1158 4198 768 4058 525 3597 
C 269 3118 243 2524 243 2025 
C 243 1661 250 1106 448 619 
C 723 -39 1216 -128 1466 -128 
C 1760 -128 2208 -7 2470 600 
C 2662 1042 2688 1559 2688 2025 
z
M 1466 -26 
C 1056 -26 813 325 723 812 
C 653 1188 653 1738 653 2096 
C 653 2588 653 2997 736 3387 
C 858 3929 1216 4096 1466 4096 
C 1728 4096 2067 3923 2189 3400 
C 2272 3036 2278 2607 2278 2096 
C 2278 1680 2278 1169 2202 792 
C 2067 95 1690 -26 1466 -26 
z
" transform="scale(0.015625)"/>
       </defs>
       <use xlink:href="#CMR17-30" transform="scale(0.996264)"/>
      </g>
     </g>
    </g>
    <g id="ytick_2">
     <g id="line2d_7">
      <g>
       <use xlink:href="#mc4d3cfc846" x="47.714139" y="254.746015" style="stroke: #000000; stroke-width: 0.8"/>
      </g>
     </g>
     <g id="text_8">
      <!-- $\mathdefault{50}$ -->
      <g transform="translate(29.008158 258.897104) scale(0.12 -0.12)">
       <defs>
        <path id="CMR17-35" d="M 730 3692 
C 794 3666 1056 3584 1325 3584 
C 1920 3584 2246 3911 2432 4100 
C 2432 4157 2432 4192 2394 4192 
C 2387 4192 2374 4192 2323 4163 
C 2099 4058 1837 3973 1517 3973 
C 1325 3973 1037 3999 723 4139 
C 653 4171 640 4171 634 4171 
C 602 4171 595 4164 595 4037 
L 595 2203 
C 595 2089 595 2057 659 2057 
C 691 2057 704 2070 736 2114 
C 941 2401 1222 2522 1542 2522 
C 1766 2522 2246 2382 2246 1289 
C 2246 1085 2246 715 2054 421 
C 1894 159 1645 25 1370 25 
C 947 25 518 320 403 814 
C 429 807 480 795 506 795 
C 589 795 749 840 749 1038 
C 749 1210 627 1280 506 1280 
C 358 1280 262 1190 262 1011 
C 262 454 704 -128 1382 -128 
C 2042 -128 2669 440 2669 1264 
C 2669 2030 2170 2624 1549 2624 
C 1222 2624 947 2503 730 2274 
L 730 3692 
z
" transform="scale(0.015625)"/>
       </defs>
       <use xlink:href="#CMR17-35" transform="scale(0.996264)"/>
       <use xlink:href="#CMR17-30" transform="translate(45.690477 0) scale(0.996264)"/>
      </g>
     </g>
    </g>
    <g id="ytick_3">
     <g id="line2d_8">
      <g>
       <use xlink:href="#mc4d3cfc846" x="47.714139" y="220.217404" style="stroke: #000000; stroke-width: 0.8"/>
      </g>
     </g>
     <g id="text_9">
      <!-- $\mathdefault{100}$ -->
      <g transform="translate(23.155168 224.368494) scale(0.12 -0.12)">
       <defs>
        <path id="CMR17-31" d="M 1702 4058 
C 1702 4192 1696 4192 1606 4192 
C 1357 3916 979 3827 621 3827 
C 602 3827 570 3827 563 3808 
C 557 3795 557 3782 557 3648 
C 755 3648 1088 3686 1344 3839 
L 1344 461 
C 1344 236 1331 160 781 160 
L 589 160 
L 589 0 
C 896 0 1216 0 1523 0 
C 1830 0 2150 0 2458 0 
L 2458 160 
L 2266 160 
C 1715 160 1702 230 1702 458 
L 1702 4058 
z
" transform="scale(0.015625)"/>
       </defs>
       <use xlink:href="#CMR17-31" transform="scale(0.996264)"/>
       <use xlink:href="#CMR17-30" transform="translate(45.690477 0) scale(0.996264)"/>
       <use xlink:href="#CMR17-30" transform="translate(91.380954 0) scale(0.996264)"/>
      </g>
     </g>
    </g>
    <g id="ytick_4">
     <g id="line2d_9">
      <g>
       <use xlink:href="#mc4d3cfc846" x="47.714139" y="185.688794" style="stroke: #000000; stroke-width: 0.8"/>
      </g>
     </g>
     <g id="text_10">
      <!-- $\mathdefault{150}$ -->
      <g transform="translate(23.155168 189.839884) scale(0.12 -0.12)">
       <use xlink:href="#CMR17-31" transform="scale(0.996264)"/>
       <use xlink:href="#CMR17-35" transform="translate(45.690477 0) scale(0.996264)"/>
       <use xlink:href="#CMR17-30" transform="translate(91.380954 0) scale(0.996264)"/>
      </g>
     </g>
    </g>
    <g id="ytick_5">
     <g id="line2d_10">
      <g>
       <use xlink:href="#mc4d3cfc846" x="47.714139" y="151.160183" style="stroke: #000000; stroke-width: 0.8"/>
      </g>
     </g>
     <g id="text_11">
      <!-- $\mathdefault{200}$ -->
      <g transform="translate(23.155168 155.311273) scale(0.12 -0.12)">
       <defs>
        <path id="CMR17-32" d="M 2669 989 
L 2554 989 
C 2490 536 2438 459 2413 420 
C 2381 369 1920 369 1830 369 
L 602 369 
C 832 619 1280 1072 1824 1597 
C 2214 1967 2669 2402 2669 3035 
C 2669 3790 2067 4224 1395 4224 
C 691 4224 262 3604 262 3030 
C 262 2780 448 2748 525 2748 
C 589 2748 781 2787 781 3010 
C 781 3207 614 3264 525 3264 
C 486 3264 448 3258 422 3245 
C 544 3790 915 4058 1306 4058 
C 1862 4058 2227 3617 2227 3035 
C 2227 2479 1901 2000 1536 1584 
L 262 146 
L 262 0 
L 2515 0 
L 2669 989 
z
" transform="scale(0.015625)"/>
       </defs>
       <use xlink:href="#CMR17-32" transform="scale(0.996264)"/>
       <use xlink:href="#CMR17-30" transform="translate(45.690477 0) scale(0.996264)"/>
       <use xlink:href="#CMR17-30" transform="translate(91.380954 0) scale(0.996264)"/>
      </g>
     </g>
    </g>
    <g id="ytick_6">
     <g id="line2d_11">
      <g>
       <use xlink:href="#mc4d3cfc846" x="47.714139" y="116.631573" style="stroke: #000000; stroke-width: 0.8"/>
      </g>
     </g>
     <g id="text_12">
      <!-- $\mathdefault{250}$ -->
      <g transform="translate(23.155168 120.782663) scale(0.12 -0.12)">
       <use xlink:href="#CMR17-32" transform="scale(0.996264)"/>
       <use xlink:href="#CMR17-35" transform="translate(45.690477 0) scale(0.996264)"/>
       <use xlink:href="#CMR17-30" transform="translate(91.380954 0) scale(0.996264)"/>
      </g>
     </g>
    </g>
    <g id="ytick_7">
     <g id="line2d_12">
      <g>
       <use xlink:href="#mc4d3cfc846" x="47.714139" y="82.102963" style="stroke: #000000; stroke-width: 0.8"/>
      </g>
     </g>
     <g id="text_13">
      <!-- $\mathdefault{300}$ -->
      <g transform="translate(23.155168 86.254053) scale(0.12 -0.12)">
       <defs>
        <path id="CMR17-33" d="M 1414 2157 
C 1984 2157 2234 1662 2234 1090 
C 2234 320 1824 25 1453 25 
C 1114 25 563 194 390 693 
C 422 680 454 680 486 680 
C 640 680 755 782 755 948 
C 755 1133 614 1216 486 1216 
C 378 1216 211 1165 211 926 
C 211 335 787 -128 1466 -128 
C 2176 -128 2720 430 2720 1085 
C 2720 1707 2208 2157 1600 2227 
C 2086 2328 2554 2756 2554 3329 
C 2554 3820 2048 4179 1472 4179 
C 890 4179 378 3829 378 3329 
C 378 3110 544 3072 627 3072 
C 762 3072 877 3155 877 3321 
C 877 3486 762 3569 627 3569 
C 602 3569 570 3569 544 3557 
C 730 3959 1235 4032 1459 4032 
C 1683 4032 2106 3925 2106 3320 
C 2106 3143 2080 2828 1862 2550 
C 1670 2304 1453 2304 1242 2284 
C 1210 2284 1062 2269 1037 2269 
C 992 2263 966 2257 966 2208 
C 966 2163 973 2157 1101 2157 
L 1414 2157 
z
" transform="scale(0.015625)"/>
       </defs>
       <use xlink:href="#CMR17-33" transform="scale(0.996264)"/>
       <use xlink:href="#CMR17-30" transform="translate(45.690477 0) scale(0.996264)"/>
       <use xlink:href="#CMR17-30" transform="translate(91.380954 0) scale(0.996264)"/>
      </g>
     </g>
    </g>
    <g id="ytick_8">
     <g id="line2d_13">
      <g>
       <use xlink:href="#mc4d3cfc846" x="47.714139" y="47.574352" style="stroke: #000000; stroke-width: 0.8"/>
      </g>
     </g>
     <g id="text_14">
      <!-- $\mathdefault{350}$ -->
      <g transform="translate(23.155168 51.725442) scale(0.12 -0.12)">
       <use xlink:href="#CMR17-33" transform="scale(0.996264)"/>
       <use xlink:href="#CMR17-35" transform="translate(45.690477 0) scale(0.996264)"/>
       <use xlink:href="#CMR17-30" transform="translate(91.380954 0) scale(0.996264)"/>
      </g>
     </g>
    </g>
    <g id="text_15">
     <!-- Time (seconds) -->
     <g transform="translate(16.166376 193.942) rotate(-90) scale(0.12 -0.12)">
      <defs>
       <path id="CMSS17-6d" d="M 4288 1877 
C 4288 2308 4179 2816 3462 2816 
C 2982 2816 2694 2516 2566 2331 
C 2451 2670 2182 2816 1798 2816 
C 1363 2816 1088 2568 941 2389 
L 941 2758 
L 474 2758 
L 474 0 
L 960 0 
L 960 1559 
C 960 1939 1101 2428 1555 2428 
C 2138 2428 2138 2016 2138 1829 
L 2138 0 
L 2624 0 
L 2624 1559 
C 2624 1939 2765 2428 3219 2428 
C 3802 2428 3802 2016 3802 1829 
L 3802 0 
L 4288 0 
L 4288 1877 
z
" transform="scale(0.015625)"/>
       <path id="CMSS17-65" d="M 2502 1377 
C 2502 1590 2490 2003 2285 2345 
C 2061 2713 1696 2816 1421 2816 
C 755 2816 192 2188 192 1375 
C 192 582 774 -64 1510 -64 
C 1798 -64 2150 19 2470 248 
C 2470 274 2458 414 2451 420 
C 2451 433 2432 630 2432 656 
C 2125 407 1773 325 1517 325 
C 1107 325 666 667 646 1377 
L 2502 1377 
z
M 698 1728 
C 781 2084 1062 2421 1421 2421 
C 1517 2421 1965 2421 2080 1728 
L 698 1728 
z
" transform="scale(0.015625)"/>
       <path id="CMSS17-28" d="M 1613 4768 
C 1267 4417 474 3601 474 1588 
C 474 -433 1267 -1243 1613 -1600 
L 2003 -1600 
C 1216 -784 960 357 960 1581 
C 960 2798 1203 3946 2003 4768 
L 1613 4768 
z
" transform="scale(0.015625)"/>
       <path id="CMSS17-29" d="M 723 -1600 
C 1069 -1249 1862 -433 1862 1581 
C 1862 3601 1069 4411 723 4768 
L 333 4768 
C 1120 3952 1376 2811 1376 1588 
C 1376 370 1133 -778 333 -1600 
L 723 -1600 
z
" transform="scale(0.015625)"/>
      </defs>
      <use xlink:href="#CMSS17-54" transform="scale(0.996264)"/>
      <use xlink:href="#CMSS17-69" transform="translate(63.819454 0) scale(0.996264)"/>
      <use xlink:href="#CMSS17-6d" transform="translate(86.000177 0) scale(0.996264)"/>
      <use xlink:href="#CMSS17-65" transform="translate(160.229431 0) scale(0.996264)"/>
      <use xlink:href="#CMSS17-28" transform="translate(233.097366 0) scale(0.996264)"/>
      <use xlink:href="#CMSS17-73" transform="translate(269.53128 0) scale(0.996264)"/>
      <use xlink:href="#CMSS17-65" transform="translate(305.444822 0) scale(0.996264)"/>
      <use xlink:href="#CMSS17-63" transform="translate(347.083644 0) scale(0.996264)"/>
      <use xlink:href="#CMSS17-6f" transform="translate(388.722467 0) scale(0.996264)"/>
      <use xlink:href="#CMSS17-6e" transform="translate(435.56609 0) scale(0.996264)"/>
      <use xlink:href="#CMSS17-64" transform="translate(483.771033 0) scale(0.996264)"/>
      <use xlink:href="#CMSS17-73" transform="translate(531.975976 0) scale(0.996264)"/>
      <use xlink:href="#CMSS17-29" transform="translate(567.889518 0) scale(0.996264)"/>
     </g>
    </g>
   </g>
   <g id="patch_13">
    <path d="M 47.714139 289.274625 
L 47.714139 23.162625 
" style="fill: none; stroke: #000000; stroke-width: 0.8; stroke-linejoin: miter; stroke-linecap: square"/>
   </g>
   <g id="patch_14">
    <path d="M 404.834139 289.274625 
L 404.834139 23.162625 
" style="fill: none; stroke: #000000; stroke-width: 0.8; stroke-linejoin: miter; stroke-linecap: square"/>
   </g>
   <g id="patch_15">
    <path d="M 47.714139 289.274625 
L 404.834139 289.274625 
" style="fill: none; stroke: #000000; stroke-width: 0.8; stroke-linejoin: miter; stroke-linecap: square"/>
   </g>
   <g id="patch_16">
    <path d="M 47.714139 23.162625 
L 404.834139 23.162625 
" style="fill: none; stroke: #000000; stroke-width: 0.8; stroke-linejoin: miter; stroke-linecap: square"/>
   </g>
   <g id="text_16">
    <!-- ChaseBench: STB-128 and ONT-256 scenarios -->
    <g transform="translate(88.281715 17.162625) scale(0.144 -0.144)">
     <defs>
      <path id="CMSS17-43" d="M 3501 714 
C 3072 427 2874 344 2355 344 
C 1459 344 934 1303 934 2179 
C 934 3112 1472 4032 2381 4032 
C 2790 4032 3059 3918 3386 3715 
L 3475 4217 
C 3168 4370 2778 4440 2387 4440 
C 1158 4440 397 3316 397 2179 
C 397 927 1299 -64 2323 -64 
C 2874 -64 3066 -19 3539 280 
L 3501 714 
z
" transform="scale(0.015625)"/>
      <path id="CMSS17-68" d="M 2618 1891 
C 2618 2292 2522 2820 1798 2820 
C 1395 2820 1133 2623 947 2407 
L 947 4448 
L 474 4448 
L 474 32 
L 960 32 
L 960 1573 
C 960 1973 1114 2432 1549 2432 
C 2112 2432 2131 2056 2131 1839 
L 2131 32 
L 2618 32 
L 2618 1891 
z
" transform="scale(0.015625)"/>
      <path id="CMSS17-42" d="M 570 4416 
L 570 0 
L 2163 0 
C 3034 0 3667 574 3667 1200 
C 3667 1685 3251 2176 2502 2317 
C 3334 2558 3501 3040 3501 3313 
C 3501 3883 2874 4416 1997 4416 
L 570 4416 
z
M 1088 2496 
L 1088 4059 
L 1824 4059 
C 2483 4059 3002 3724 3002 3306 
C 3002 2926 2592 2496 1766 2496 
L 1088 2496 
z
M 1088 357 
L 1088 2107 
L 1939 2107 
C 2630 2107 3162 1679 3162 1206 
C 3162 772 2694 357 1984 357 
L 1088 357 
z
" transform="scale(0.015625)"/>
      <path id="CMSS17-3a" d="M 1088 2749 
L 576 2749 
L 576 2240 
L 1088 2240 
L 1088 2749 
z
M 576 510 
L 576 0 
L 1088 0 
L 1088 510 
L 576 510 
z
" transform="scale(0.015625)"/>
      <path id="CMSS17-53" d="M 2797 4169 
C 2515 4334 2208 4480 1690 4480 
C 864 4480 333 3879 333 3266 
C 333 3025 403 2753 653 2475 
C 902 2196 1184 2121 1542 2033 
C 1690 1994 1939 1924 1984 1906 
C 2342 1767 2515 1444 2515 1140 
C 2515 742 2202 318 1645 318 
C 1453 318 890 318 358 819 
L 269 318 
C 794 -64 1363 -128 1651 -128 
C 2438 -128 3002 488 3002 1186 
C 3002 1440 2925 1763 2656 2061 
C 2394 2347 2163 2410 1638 2549 
C 1338 2626 1146 2677 986 2873 
C 877 3013 819 3146 819 3317 
C 819 3673 1126 4060 1690 4060 
C 1971 4060 2336 4002 2707 3660 
L 2797 4169 
z
" transform="scale(0.015625)"/>
      <path id="CMSS17-31" d="M 1818 4288 
L 1696 4288 
C 1350 3940 947 3890 538 3890 
L 538 3520 
C 723 3520 1024 3520 1325 3667 
L 1325 369 
L 570 369 
L 570 0 
L 2573 0 
L 2573 369 
L 1818 369 
L 1818 4288 
z
" transform="scale(0.015625)"/>
      <path id="CMSS17-32" d="M 1651 1357 
C 1830 1541 2099 1764 2285 1987 
C 2464 2204 2701 2511 2701 2957 
C 2701 3657 2227 4288 1421 4288 
C 787 4288 422 3893 250 3274 
L 499 2929 
C 640 3510 838 3880 1338 3880 
C 1888 3880 2195 3433 2195 2942 
C 2195 2355 1747 1901 1408 1563 
C 1030 1187 659 804 301 408 
L 301 0 
L 2701 0 
L 2701 433 
L 1613 433 
C 1536 433 1459 433 1382 433 
L 742 433 
L 742 439 
L 1651 1357 
z
" transform="scale(0.015625)"/>
      <path id="CMSS17-38" d="M 1933 2222 
C 2419 2380 2669 2760 2669 3134 
C 2669 3722 2157 4229 1504 4229 
C 826 4229 333 3708 333 3144 
C 333 2780 576 2403 1069 2241 
C 442 1997 250 1512 250 1149 
C 250 446 819 -128 1498 -128 
C 2202 -128 2752 455 2752 1138 
C 2752 1557 2502 2000 1933 2222 
z
M 1504 2432 
C 1075 2432 787 2712 787 3136 
C 787 3566 1075 3840 1504 3840 
C 1901 3840 2214 3591 2214 3136 
C 2214 2687 1907 2432 1504 2432 
z
M 1504 267 
C 1139 267 749 517 749 1156 
C 749 1813 1184 2043 1498 2043 
C 1843 2043 2253 1800 2253 1156 
C 2253 491 1830 267 1504 267 
z
" transform="scale(0.015625)"/>
      <path id="CMSS17-4f" d="M 4096 2178 
C 4096 3503 3219 4497 2214 4497 
C 1210 4497 333 3497 333 2178 
C 333 847 1222 -128 2214 -128 
C 3206 -128 4096 847 4096 2178 
z
M 2214 273 
C 1510 273 870 1057 870 2261 
C 870 3433 1549 4096 2214 4096 
C 2880 4096 3558 3433 3558 2261 
C 3558 1051 2912 273 2214 273 
z
" transform="scale(0.015625)"/>
      <path id="CMSS17-4e" d="M 1466 4180 
L 1350 4416 
L 563 4416 
L 563 0 
L 1062 0 
L 1062 3926 
L 1069 3932 
C 1114 3817 1139 3760 1402 3194 
L 2771 236 
L 2886 0 
L 3674 0 
L 3674 4416 
L 3174 4416 
L 3174 490 
L 3168 483 
C 3123 598 3098 655 2835 1221 
L 1466 4180 
z
" transform="scale(0.015625)"/>
      <path id="CMSS17-35" d="M 934 3752 
L 2502 3752 
L 2502 4160 
L 467 4160 
L 467 1781 
L 896 1781 
C 1011 2046 1248 2240 1555 2240 
C 1843 2240 2163 1989 2163 1266 
C 2163 493 1709 267 1376 267 
C 966 267 589 512 422 851 
L 218 499 
C 512 49 992 -128 1376 -128 
C 2118 -128 2701 497 2701 1253 
C 2701 2030 2182 2629 1562 2629 
C 1338 2629 1120 2553 934 2399 
L 934 3752 
z
" transform="scale(0.015625)"/>
      <path id="CMSS17-36" d="M 2496 4101 
C 2227 4210 2035 4229 1856 4229 
C 1024 4229 250 3368 250 2006 
C 250 265 986 -128 1510 -128 
C 1798 -128 2086 -39 2362 280 
C 2643 617 2752 898 2752 1389 
C 2752 2179 2362 2880 1779 2880 
C 1357 2880 992 2657 768 2376 
C 832 3258 1254 3840 1862 3840 
C 2029 3840 2246 3816 2496 3710 
L 2496 4101 
z
M 774 1369 
C 774 1420 774 1452 781 1548 
C 781 2045 1069 2491 1536 2491 
C 1837 2491 1990 2332 2106 2135 
C 2240 1886 2246 1650 2246 1388 
C 2246 1140 2246 891 2099 637 
C 1978 439 1818 267 1510 267 
C 902 267 800 1114 774 1369 
z
" transform="scale(0.015625)"/>
      <path id="CMSS17-72" d="M 954 1363 
C 954 1965 1395 2368 1958 2368 
L 1958 2789 
C 1549 2789 1165 2585 934 2253 
L 934 2758 
L 480 2758 
L 480 0 
L 954 0 
L 954 1363 
z
" transform="scale(0.015625)"/>
     </defs>
     <use xlink:href="#CMSS17-43" transform="scale(0.996264)"/>
     <use xlink:href="#CMSS17-68" transform="translate(59.855772 0) scale(0.996264)"/>
     <use xlink:href="#CMSS17-61" transform="translate(108.060715 0) scale(0.996264)"/>
     <use xlink:href="#CMSS17-73" transform="translate(152.982635 0) scale(0.996264)"/>
     <use xlink:href="#CMSS17-65" transform="translate(188.896177 0) scale(0.996264)"/>
     <use xlink:href="#CMSS17-42" transform="translate(230.534999 0) scale(0.996264)"/>
     <use xlink:href="#CMSS17-65" transform="translate(292.87304 0) scale(0.996264)"/>
     <use xlink:href="#CMSS17-6e" transform="translate(334.511862 0) scale(0.996264)"/>
     <use xlink:href="#CMSS17-63" transform="translate(382.716805 0) scale(0.996264)"/>
     <use xlink:href="#CMSS17-68" transform="translate(424.355627 0) scale(0.996264)"/>
     <use xlink:href="#CMSS17-3a" transform="translate(472.56057 0) scale(0.996264)"/>
     <use xlink:href="#CMSS17-53" transform="translate(540.223582 0) scale(0.996264)"/>
     <use xlink:href="#CMSS17-54" transform="translate(592.272098 0) scale(0.996264)"/>
     <use xlink:href="#CMSS17-42" transform="translate(656.091552 0) scale(0.996264)"/>
     <use xlink:href="#CMSS17-2d" transform="translate(718.429592 0) scale(0.996264)"/>
     <use xlink:href="#CMSS17-31" transform="translate(749.658705 0) scale(0.996264)"/>
     <use xlink:href="#CMSS17-32" transform="translate(796.502328 0) scale(0.996264)"/>
     <use xlink:href="#CMSS17-38" transform="translate(843.345952 0) scale(0.996264)"/>
     <use xlink:href="#CMSS17-61" transform="translate(921.418688 0) scale(0.996264)"/>
     <use xlink:href="#CMSS17-6e" transform="translate(966.340609 0) scale(0.996264)"/>
     <use xlink:href="#CMSS17-64" transform="translate(1014.545552 0) scale(0.996264)"/>
     <use xlink:href="#CMSS17-4f" transform="translate(1093.979608 0) scale(0.996264)"/>
     <use xlink:href="#CMSS17-4e" transform="translate(1163.003863 0) scale(0.996264)"/>
     <use xlink:href="#CMSS17-54" transform="translate(1229.065382 0) scale(0.996264)"/>
     <use xlink:href="#CMSS17-2d" transform="translate(1292.884836 0) scale(0.996264)"/>
     <use xlink:href="#CMSS17-32" transform="translate(1324.113949 0) scale(0.996264)"/>
     <use xlink:href="#CMSS17-35" transform="translate(1370.957572 0) scale(0.996264)"/>
     <use xlink:href="#CMSS17-36" transform="translate(1417.801196 0) scale(0.996264)"/>
     <use xlink:href="#CMSS17-73" transform="translate(1495.873932 0) scale(0.996264)"/>
     <use xlink:href="#CMSS17-63" transform="translate(1531.787474 0) scale(0.996264)"/>
     <use xlink:href="#CMSS17-65" transform="translate(1573.426296 0) scale(0.996264)"/>
     <use xlink:href="#CMSS17-6e" transform="translate(1615.065118 0) scale(0.996264)"/>
     <use xlink:href="#CMSS17-61" transform="translate(1663.270061 0) scale(0.996264)"/>
     <use xlink:href="#CMSS17-72" transform="translate(1705.589528 0) scale(0.996264)"/>
     <use xlink:href="#CMSS17-69" transform="translate(1737.499301 0) scale(0.996264)"/>
     <use xlink:href="#CMSS17-6f" transform="translate(1759.680024 0) scale(0.996264)"/>
     <use xlink:href="#CMSS17-73" transform="translate(1806.523647 0) scale(0.996264)"/>
    </g>
   </g>
   <g id="legend_1">
    <g id="patch_17">
     <path d="M 133.273253 49.487221 
L 319.275025 49.487221 
Q 321.675025 49.487221 321.675025 47.087221 
L 321.675025 31.562625 
Q 321.675025 29.162625 319.275025 29.162625 
L 133.273253 29.162625 
Q 130.873253 29.162625 130.873253 31.562625 
L 130.873253 47.087221 
Q 130.873253 49.487221 133.273253 49.487221 
z
" style="fill: #ffffff; opacity: 0.8; stroke: #cccccc; stroke-linejoin: miter"/>
    </g>
    <g id="patch_18">
     <path d="M 135.673253 42.362625 
L 159.673253 42.362625 
L 159.673253 33.962625 
L 135.673253 33.962625 
z
" style="fill: url(#hb4d70d8fc1); stroke: #9932cc; stroke-width: 0.5; stroke-linejoin: miter"/>
    </g>
    <g id="text_17">
     <!-- STB-128 -->
     <g transform="translate(169.273253 42.362625) scale(0.12 -0.12)">
      <use xlink:href="#CMSS17-53" transform="scale(0.996264)"/>
      <use xlink:href="#CMSS17-54" transform="translate(52.048516 0) scale(0.996264)"/>
      <use xlink:href="#CMSS17-42" transform="translate(115.86797 0) scale(0.996264)"/>
      <use xlink:href="#CMSS17-2d" transform="translate(178.20601 0) scale(0.996264)"/>
      <use xlink:href="#CMSS17-31" transform="translate(209.435123 0) scale(0.996264)"/>
      <use xlink:href="#CMSS17-32" transform="translate(256.278747 0) scale(0.996264)"/>
      <use xlink:href="#CMSS17-38" transform="translate(303.12237 0) scale(0.996264)"/>
     </g>
    </g>
    <g id="patch_19">
     <path d="M 236.990766 42.362625 
L 260.990766 42.362625 
L 260.990766 33.962625 
L 236.990766 33.962625 
z
" style="fill: url(#he8bc26b41a); stroke: #2e8b57; stroke-width: 0.5; stroke-linejoin: miter"/>
    </g>
    <g id="text_18">
     <!-- ONT-256 -->
     <g transform="translate(270.590766 42.362625) scale(0.12 -0.12)">
      <use xlink:href="#CMSS17-4f" transform="scale(0.996264)"/>
      <use xlink:href="#CMSS17-4e" transform="translate(69.024255 0) scale(0.996264)"/>
      <use xlink:href="#CMSS17-54" transform="translate(135.085775 0) scale(0.996264)"/>
      <use xlink:href="#CMSS17-2d" transform="translate(198.905228 0) scale(0.996264)"/>
      <use xlink:href="#CMSS17-32" transform="translate(230.134341 0) scale(0.996264)"/>
      <use xlink:href="#CMSS17-35" transform="translate(276.977965 0) scale(0.996264)"/>
      <use xlink:href="#CMSS17-36" transform="translate(323.821588 0) scale(0.996264)"/>
     </g>
    </g>
   </g>
  </g>
 </g>
 <defs>
  <clipPath id="p8231aa9773">
   <rect x="47.714139" y="23.162625" width="357.12" height="266.112"/>
  </clipPath>
 </defs>
 <defs>
  <pattern id="hb4d70d8fc1" patternUnits="userSpaceOnUse" x="0" y="0" width="72" height="72">
   <rect x="0" y="0" width="73" height="73" fill="#ffffff"/>
   <path d="M -36 36 
L 36 -36 
M -34 38 
L 38 -34 
M -32 40 
L 40 -32 
M -30 42 
L 42 -30 
M -28 44 
L 44 -28 
M -26 46 
L 46 -26 
M -24 48 
L 48 -24 
M -22 50 
L 50 -22 
M -20 52 
L 52 -20 
M -18 54 
L 54 -18 
M -16 56 
L 56 -16 
M -14 58 
L 58 -14 
M -12 60 
L 60 -12 
M -10 62 
L 62 -10 
M -8 64 
L 64 -8 
M -6 66 
L 66 -6 
M -4 68 
L 68 -4 
M -2 70 
L 70 -2 
M 0 72 
L 72 0 
M 2 74 
L 74 2 
M 4 76 
L 76 4 
M 6 78 
L 78 6 
M 8 80 
L 80 8 
M 10 82 
L 82 10 
M 12 84 
L 84 12 
M 14 86 
L 86 14 
M 16 88 
L 88 16 
M 18 90 
L 90 18 
M 20 92 
L 92 20 
M 22 94 
L 94 22 
M 24 96 
L 96 24 
M 26 98 
L 98 26 
M 28 100 
L 100 28 
M 30 102 
L 102 30 
M 32 104 
L 104 32 
M 34 106 
L 106 34 
M 36 108 
L 108 36 
M -36 36 
L 36 108 
M -34 34 
L 38 106 
M -32 32 
L 40 104 
M -30 30 
L 42 102 
M -28 28 
L 44 100 
M -26 26 
L 46 98 
M -24 24 
L 48 96 
M -22 22 
L 50 94 
M -20 20 
L 52 92 
M -18 18 
L 54 90 
M -16 16 
L 56 88 
M -14 14 
L 58 86 
M -12 12 
L 60 84 
M -10 10 
L 62 82 
M -8 8 
L 64 80 
M -6 6 
L 66 78 
M -4 4 
L 68 76 
M -2 2 
L 70 74 
M 0 0 
L 72 72 
M 2 -2 
L 74 70 
M 4 -4 
L 76 68 
M 6 -6 
L 78 66 
M 8 -8 
L 80 64 
M 10 -10 
L 82 62 
M 12 -12 
L 84 60 
M 14 -14 
L 86 58 
M 16 -16 
L 88 56 
M 18 -18 
L 90 54 
M 20 -20 
L 92 52 
M 22 -22 
L 94 50 
M 24 -24 
L 96 48 
M 26 -26 
L 98 46 
M 28 -28 
L 100 44 
M 30 -30 
L 102 42 
M 32 -32 
L 104 40 
M 34 -34 
L 106 38 
M 36 -36 
L 108 36 
" style="fill: #9932cc; stroke: #9932cc; stroke-width: 0.1; stroke-linecap: butt; stroke-linejoin: miter"/>
  </pattern>
  <pattern id="he8bc26b41a" patternUnits="userSpaceOnUse" x="0" y="0" width="72" height="72">
   <rect x="0" y="0" width="73" height="73" fill="#ffffff"/>
   <path d="M -36 36 
L 36 -36 
M -35 37 
L 37 -35 
M -34 38 
L 38 -34 
M -33 39 
L 39 -33 
M -32 40 
L 40 -32 
M -31 41 
L 41 -31 
M -30 42 
L 42 -30 
M -29 43 
L 43 -29 
M -28 44 
L 44 -28 
M -27 45 
L 45 -27 
M -26 46 
L 46 -26 
M -25 47 
L 47 -25 
M -24 48 
L 48 -24 
M -23 49 
L 49 -23 
M -22 50 
L 50 -22 
M -21 51 
L 51 -21 
M -20 52 
L 52 -20 
M -19 53 
L 53 -19 
M -18 54 
L 54 -18 
M -17 55 
L 55 -17 
M -16 56 
L 56 -16 
M -15 57 
L 57 -15 
M -14 58 
L 58 -14 
M -13 59 
L 59 -13 
M -12 60 
L 60 -12 
M -11 61 
L 61 -11 
M -10 62 
L 62 -10 
M -9 63 
L 63 -9 
M -8 64 
L 64 -8 
M -7 65 
L 65 -7 
M -6 66 
L 66 -6 
M -5 67 
L 67 -5 
M -4 68 
L 68 -4 
M -3 69 
L 69 -3 
M -2 70 
L 70 -2 
M -1 71 
L 71 -1 
M 0 72 
L 72 0 
M 1 73 
L 73 1 
M 2 74 
L 74 2 
M 3 75 
L 75 3 
M 4 76 
L 76 4 
M 5 77 
L 77 5 
M 6 78 
L 78 6 
M 7 79 
L 79 7 
M 8 80 
L 80 8 
M 9 81 
L 81 9 
M 10 82 
L 82 10 
M 11 83 
L 83 11 
M 12 84 
L 84 12 
M 13 85 
L 85 13 
M 14 86 
L 86 14 
M 15 87 
L 87 15 
M 16 88 
L 88 16 
M 17 89 
L 89 17 
M 18 90 
L 90 18 
M 19 91 
L 91 19 
M 20 92 
L 92 20 
M 21 93 
L 93 21 
M 22 94 
L 94 22 
M 23 95 
L 95 23 
M 24 96 
L 96 24 
M 25 97 
L 97 25 
M 26 98 
L 98 26 
M 27 99 
L 99 27 
M 28 100 
L 100 28 
M 29 101 
L 101 29 
M 30 102 
L 102 30 
M 31 103 
L 103 31 
M 32 104 
L 104 32 
M 33 105 
L 105 33 
M 34 106 
L 106 34 
M 35 107 
L 107 35 
M 36 108 
L 108 36 
M -36 36 
L 36 108 
M -35 35 
L 37 107 
M -34 34 
L 38 106 
M -33 33 
L 39 105 
M -32 32 
L 40 104 
M -31 31 
L 41 103 
M -30 30 
L 42 102 
M -29 29 
L 43 101 
M -28 28 
L 44 100 
M -27 27 
L 45 99 
M -26 26 
L 46 98 
M -25 25 
L 47 97 
M -24 24 
L 48 96 
M -23 23 
L 49 95 
M -22 22 
L 50 94 
M -21 21 
L 51 93 
M -20 20 
L 52 92 
M -19 19 
L 53 91 
M -18 18 
L 54 90 
M -17 17 
L 55 89 
M -16 16 
L 56 88 
M -15 15 
L 57 87 
M -14 14 
L 58 86 
M -13 13 
L 59 85 
M -12 12 
L 60 84 
M -11 11 
L 61 83 
M -10 10 
L 62 82 
M -9 9 
L 63 81 
M -8 8 
L 64 80 
M -7 7 
L 65 79 
M -6 6 
L 66 78 
M -5 5 
L 67 77 
M -4 4 
L 68 76 
M -3 3 
L 69 75 
M -2 2 
L 70 74 
M -1 1 
L 71 73 
M 0 0 
L 72 72 
M 1 -1 
L 73 71 
M 2 -2 
L 74 70 
M 3 -3 
L 75 69 
M 4 -4 
L 76 68 
M 5 -5 
L 77 67 
M 6 -6 
L 78 66 
M 7 -7 
L 79 65 
M 8 -8 
L 80 64 
M 9 -9 
L 81 63 
M 10 -10 
L 82 62 
M 11 -11 
L 83 61 
M 12 -12 
L 84 60 
M 13 -13 
L 85 59 
M 14 -14 
L 86 58 
M 15 -15 
L 87 57 
M 16 -16 
L 88 56 
M 17 -17 
L 89 55 
M 18 -18 
L 90 54 
M 19 -19 
L 91 53 
M 20 -20 
L 92 52 
M 21 -21 
L 93 51 
M 22 -22 
L 94 50 
M 23 -23 
L 95 49 
M 24 -24 
L 96 48 
M 25 -25 
L 97 47 
M 26 -26 
L 98 46 
M 27 -27 
L 99 45 
M 28 -28 
L 100 44 
M 29 -29 
L 101 43 
M 30 -30 
L 102 42 
M 31 -31 
L 103 41 
M 32 -32 
L 104 40 
M 33 -33 
L 105 39 
M 34 -34 
L 106 38 
M 35 -35 
L 107 37 
M 36 -36 
L 108 36 
" style="fill: #2e8b57; stroke: #2e8b57; stroke-width: 0.1; stroke-linecap: butt; stroke-linejoin: miter"/>
  </pattern>
 </defs>
</svg>
