<?xml version="1.0" encoding="utf-8" standalone="no"?>
<!DOCTYPE svg PUBLIC "-//W3C//DTD SVG 1.1//EN"
  "http://www.w3.org/Graphics/SVG/1.1/DTD/svg11.dtd">
<svg xmlns:xlink="http://www.w3.org/1999/xlink" width="414.874143pt" height="328.728176pt" viewBox="0 0 414.874143 328.728176" xmlns="http://www.w3.org/2000/svg" version="1.1">
 <metadata>
  <rdf:RDF xmlns:dc="http://purl.org/dc/elements/1.1/" xmlns:cc="http://creativecommons.org/ns#" xmlns:rdf="http://www.w3.org/1999/02/22-rdf-syntax-ns#">
   <cc:Work>
    <dc:type rdf:resource="http://purl.org/dc/dcmitype/StillImage"/>
    <dc:date>2023-03-15T16:59:29.907454</dc:date>
    <dc:format>image/svg+xml</dc:format>
    <dc:creator>
     <cc:Agent>
      <dc:title>Matplotlib v3.7.1, https://matplotlib.org/</dc:title>
     </cc:Agent>
    </dc:creator>
   </cc:Work>
  </rdf:RDF>
 </metadata>
 <defs>
  <style type="text/css">*{stroke-linejoin: round; stroke-linecap: butt}</style>
 </defs>
 <g id="figure_1">
  <g id="patch_1">
   <path d="M -0 328.728176 
L 414.874143 328.728176 
L 414.874143 0 
L -0 0 
z
" style="fill: #ffffff"/>
  </g>
  <g id="axes_1">
   <g id="patch_2">
    <path d="M 41.861149 289.274625 
L 398.981149 289.274625 
L 398.981149 23.162625 
L 41.861149 23.162625 
z
" style="fill: #ffffff"/>
   </g>
   <g id="matplotlib.axis_1">
    <g id="xtick_1">
     <g id="line2d_1">
      <path d="M 41.861149 289.274625 
L 41.861149 23.162625 
" clip-path="url(#p63c9e96cf1)" style="fill: none; stroke: #b0b0b0; stroke-width: 0.8; stroke-linecap: square"/>
     </g>
     <g id="line2d_2">
      <defs>
       <path id="ma1d2853624" d="M 0 0 
L 0 3.5 
" style="stroke: #000000; stroke-width: 0.8"/>
      </defs>
      <g>
       <use xlink:href="#ma1d2853624" x="41.861149" y="289.274625" style="stroke: #000000; stroke-width: 0.8"/>
      </g>
     </g>
     <g id="text_1">
      <!-- 1k -->
      <g transform="translate(36.094649 304.576805) scale(0.12 -0.12)">
       <defs>
        <path id="CMSS17-31" d="M 1818 4288 
L 1696 4288 
C 1350 3940 947 3890 538 3890 
L 538 3520 
C 723 3520 1024 3520 1325 3667 
L 1325 369 
L 570 369 
L 570 0 
L 2573 0 
L 2573 369 
L 1818 369 
L 1818 4288 
z
" transform="scale(0.015625)"/>
        <path id="CMSS17-6b" d="M 1696 1688 
L 2688 2739 
L 2074 2739 
L 954 1554 
L 954 4416 
L 480 4416 
L 480 0 
L 947 0 
L 947 892 
L 1376 1344 
L 2278 0 
L 2822 0 
L 1696 1688 
z
" transform="scale(0.015625)"/>
       </defs>
       <use xlink:href="#CMSS17-31" transform="scale(0.996264)"/>
       <use xlink:href="#CMSS17-6b" transform="translate(46.843624 0) scale(0.996264)"/>
      </g>
     </g>
    </g>
    <g id="xtick_2">
     <g id="line2d_3">
      <path d="M 237.082962 289.274625 
L 237.082962 23.162625 
" clip-path="url(#p63c9e96cf1)" style="fill: none; stroke: #b0b0b0; stroke-width: 0.8; stroke-linecap: square"/>
     </g>
     <g id="line2d_4">
      <g>
       <use xlink:href="#ma1d2853624" x="237.082962" y="289.274625" style="stroke: #000000; stroke-width: 0.8"/>
      </g>
     </g>
     <g id="text_2">
      <!-- 10k -->
      <g transform="translate(228.389967 304.576805) scale(0.12 -0.12)">
       <defs>
        <path id="CMSS17-30" d="M 2758 2044 
C 2758 2405 2752 3077 2490 3596 
C 2227 4096 1805 4229 1504 4229 
C 1069 4229 698 3975 506 3570 
C 301 3146 243 2709 243 2044 
C 243 1589 262 1031 493 543 
C 755 5 1197 -128 1498 -128 
C 1894 -128 2278 81 2496 518 
C 2720 974 2758 1474 2758 2044 
z
M 1498 261 
C 1011 261 864 811 819 995 
C 742 1310 730 1614 730 2114 
C 730 2506 730 2948 851 3297 
C 998 3701 1254 3840 1498 3840 
C 1971 3840 2125 3372 2176 3208 
C 2272 2873 2272 2481 2272 2114 
C 2272 1526 2272 261 1498 261 
z
" transform="scale(0.015625)"/>
       </defs>
       <use xlink:href="#CMSS17-31" transform="scale(0.996264)"/>
       <use xlink:href="#CMSS17-30" transform="translate(46.843624 0) scale(0.996264)"/>
       <use xlink:href="#CMSS17-6b" transform="translate(93.687247 0) scale(0.996264)"/>
      </g>
     </g>
    </g>
    <g id="xtick_3">
     <g id="line2d_5">
      <path d="M 314.769532 289.274625 
L 314.769532 23.162625 
" clip-path="url(#p63c9e96cf1)" style="fill: none; stroke: #b0b0b0; stroke-width: 0.8; stroke-linecap: square"/>
     </g>
     <g id="line2d_6">
      <g>
       <use xlink:href="#ma1d2853624" x="314.769532" y="289.274625" style="stroke: #000000; stroke-width: 0.8"/>
      </g>
     </g>
     <g id="text_3">
      <!-- 25k -->
      <g transform="translate(306.076537 304.576805) scale(0.12 -0.12)">
       <defs>
        <path id="CMSS17-32" d="M 1651 1357 
C 1830 1541 2099 1764 2285 1987 
C 2464 2204 2701 2511 2701 2957 
C 2701 3657 2227 4288 1421 4288 
C 787 4288 422 3893 250 3274 
L 499 2929 
C 640 3510 838 3880 1338 3880 
C 1888 3880 2195 3433 2195 2942 
C 2195 2355 1747 1901 1408 1563 
C 1030 1187 659 804 301 408 
L 301 0 
L 2701 0 
L 2701 433 
L 1613 433 
C 1536 433 1459 433 1382 433 
L 742 433 
L 742 439 
L 1651 1357 
z
" transform="scale(0.015625)"/>
        <path id="CMSS17-35" d="M 934 3752 
L 2502 3752 
L 2502 4160 
L 467 4160 
L 467 1781 
L 896 1781 
C 1011 2046 1248 2240 1555 2240 
C 1843 2240 2163 1989 2163 1266 
C 2163 493 1709 267 1376 267 
C 966 267 589 512 422 851 
L 218 499 
C 512 49 992 -128 1376 -128 
C 2118 -128 2701 497 2701 1253 
C 2701 2030 2182 2629 1562 2629 
C 1338 2629 1120 2553 934 2399 
L 934 3752 
z
" transform="scale(0.015625)"/>
       </defs>
       <use xlink:href="#CMSS17-32" transform="scale(0.996264)"/>
       <use xlink:href="#CMSS17-35" transform="translate(46.843624 0) scale(0.996264)"/>
       <use xlink:href="#CMSS17-6b" transform="translate(93.687247 0) scale(0.996264)"/>
      </g>
     </g>
    </g>
    <g id="xtick_4">
     <g id="line2d_7">
      <path d="M 373.537154 289.274625 
L 373.537154 23.162625 
" clip-path="url(#p63c9e96cf1)" style="fill: none; stroke: #b0b0b0; stroke-width: 0.8; stroke-linecap: square"/>
     </g>
     <g id="line2d_8">
      <g>
       <use xlink:href="#ma1d2853624" x="373.537154" y="289.274625" style="stroke: #000000; stroke-width: 0.8"/>
      </g>
     </g>
     <g id="text_4">
      <!-- 50k -->
      <g transform="translate(364.844159 304.576805) scale(0.12 -0.12)">
       <use xlink:href="#CMSS17-35" transform="scale(0.996264)"/>
       <use xlink:href="#CMSS17-30" transform="translate(46.843624 0) scale(0.996264)"/>
       <use xlink:href="#CMSS17-6b" transform="translate(93.687247 0) scale(0.996264)"/>
      </g>
     </g>
    </g>
    <g id="xtick_5">
     <g id="line2d_9">
      <path d="M 398.981149 289.274625 
L 398.981149 23.162625 
" clip-path="url(#p63c9e96cf1)" style="fill: none; stroke: #b0b0b0; stroke-width: 0.8; stroke-linecap: square"/>
     </g>
     <g id="line2d_10">
      <g>
       <use xlink:href="#ma1d2853624" x="398.981149" y="289.274625" style="stroke: #000000; stroke-width: 0.8"/>
      </g>
     </g>
     <g id="text_5">
      <!-- 67k -->
      <g transform="translate(390.288154 304.576805) scale(0.12 -0.12)">
       <defs>
        <path id="CMSS17-36" d="M 2496 4101 
C 2227 4210 2035 4229 1856 4229 
C 1024 4229 250 3368 250 2006 
C 250 265 986 -128 1510 -128 
C 1798 -128 2086 -39 2362 280 
C 2643 617 2752 898 2752 1389 
C 2752 2179 2362 2880 1779 2880 
C 1357 2880 992 2657 768 2376 
C 832 3258 1254 3840 1862 3840 
C 2029 3840 2246 3816 2496 3710 
L 2496 4101 
z
M 774 1369 
C 774 1420 774 1452 781 1548 
C 781 2045 1069 2491 1536 2491 
C 1837 2491 1990 2332 2106 2135 
C 2240 1886 2246 1650 2246 1388 
C 2246 1140 2246 891 2099 637 
C 1978 439 1818 267 1510 267 
C 902 267 800 1114 774 1369 
z
" transform="scale(0.015625)"/>
        <path id="CMSS17-37" d="M 1389 3776 
C 1466 3776 1542 3776 1619 3776 
L 2355 3776 
C 1440 2711 915 1365 915 -32 
L 1427 -32 
C 1427 1323 1875 2696 2752 3795 
L 2752 4209 
L 250 4209 
L 250 3776 
L 1389 3776 
z
" transform="scale(0.015625)"/>
       </defs>
       <use xlink:href="#CMSS17-36" transform="scale(0.996264)"/>
       <use xlink:href="#CMSS17-37" transform="translate(46.843624 0) scale(0.996264)"/>
       <use xlink:href="#CMSS17-6b" transform="translate(93.687247 0) scale(0.996264)"/>
      </g>
     </g>
    </g>
    <g id="xtick_6">
     <g id="line2d_11">
      <defs>
       <path id="m6434e1b2ad" d="M 0 0 
L 0 2 
" style="stroke: #000000; stroke-width: 0.6"/>
      </defs>
      <g>
       <use xlink:href="#m6434e1b2ad" x="100.62877" y="289.274625" style="stroke: #000000; stroke-width: 0.6"/>
      </g>
     </g>
    </g>
    <g id="xtick_7">
     <g id="line2d_12">
      <g>
       <use xlink:href="#m6434e1b2ad" x="135.005625" y="289.274625" style="stroke: #000000; stroke-width: 0.6"/>
      </g>
     </g>
    </g>
    <g id="xtick_8">
     <g id="line2d_13">
      <g>
       <use xlink:href="#m6434e1b2ad" x="159.396392" y="289.274625" style="stroke: #000000; stroke-width: 0.6"/>
      </g>
     </g>
    </g>
    <g id="xtick_9">
     <g id="line2d_14">
      <g>
       <use xlink:href="#m6434e1b2ad" x="178.31534" y="289.274625" style="stroke: #000000; stroke-width: 0.6"/>
      </g>
     </g>
    </g>
    <g id="xtick_10">
     <g id="line2d_15">
      <g>
       <use xlink:href="#m6434e1b2ad" x="193.773247" y="289.274625" style="stroke: #000000; stroke-width: 0.6"/>
      </g>
     </g>
    </g>
    <g id="xtick_11">
     <g id="line2d_16">
      <g>
       <use xlink:href="#m6434e1b2ad" x="206.842721" y="289.274625" style="stroke: #000000; stroke-width: 0.6"/>
      </g>
     </g>
    </g>
    <g id="xtick_12">
     <g id="line2d_17">
      <g>
       <use xlink:href="#m6434e1b2ad" x="218.164014" y="289.274625" style="stroke: #000000; stroke-width: 0.6"/>
      </g>
     </g>
    </g>
    <g id="xtick_13">
     <g id="line2d_18">
      <g>
       <use xlink:href="#m6434e1b2ad" x="228.150102" y="289.274625" style="stroke: #000000; stroke-width: 0.6"/>
      </g>
     </g>
    </g>
    <g id="xtick_14">
     <g id="line2d_19">
      <g>
       <use xlink:href="#m6434e1b2ad" x="295.850584" y="289.274625" style="stroke: #000000; stroke-width: 0.6"/>
      </g>
     </g>
    </g>
    <g id="xtick_15">
     <g id="line2d_20">
      <g>
       <use xlink:href="#m6434e1b2ad" x="330.227439" y="289.274625" style="stroke: #000000; stroke-width: 0.6"/>
      </g>
     </g>
    </g>
    <g id="xtick_16">
     <g id="line2d_21">
      <g>
       <use xlink:href="#m6434e1b2ad" x="354.618205" y="289.274625" style="stroke: #000000; stroke-width: 0.6"/>
      </g>
     </g>
    </g>
    <g id="xtick_17">
     <g id="line2d_22">
      <g>
       <use xlink:href="#m6434e1b2ad" x="388.99506" y="289.274625" style="stroke: #000000; stroke-width: 0.6"/>
      </g>
     </g>
    </g>
    <g id="text_6">
     <!-- Source instance size -->
     <g transform="translate(171.642141 319.20358) scale(0.12 -0.12)">
      <defs>
       <path id="CMSS17-53" d="M 2797 4169 
C 2515 4334 2208 4480 1690 4480 
C 864 4480 333 3879 333 3266 
C 333 3025 403 2753 653 2475 
C 902 2196 1184 2121 1542 2033 
C 1690 1994 1939 1924 1984 1906 
C 2342 1767 2515 1444 2515 1140 
C 2515 742 2202 318 1645 318 
C 1453 318 890 318 358 819 
L 269 318 
C 794 -64 1363 -128 1651 -128 
C 2438 -128 3002 488 3002 1186 
C 3002 1440 2925 1763 2656 2061 
C 2394 2347 2163 2410 1638 2549 
C 1338 2626 1146 2677 986 2873 
C 877 3013 819 3146 819 3317 
C 819 3673 1126 4060 1690 4060 
C 1971 4060 2336 4002 2707 3660 
L 2797 4169 
z
" transform="scale(0.015625)"/>
       <path id="CMSS17-6f" d="M 2829 1356 
C 2829 2176 2221 2816 1504 2816 
C 768 2816 173 2157 173 1356 
C 173 544 787 -64 1498 -64 
C 2227 -64 2829 563 2829 1356 
z
M 1504 337 
C 1050 337 659 709 659 1408 
C 659 2151 1114 2427 1498 2427 
C 1914 2427 2342 2126 2342 1408 
C 2342 683 1926 337 1504 337 
z
" transform="scale(0.015625)"/>
       <path id="CMSS17-75" d="M 2618 2739 
L 2131 2739 
L 2131 972 
C 2131 498 1786 306 1421 306 
C 998 306 960 447 960 709 
L 960 2739 
L 474 2739 
L 474 678 
C 474 179 646 -64 1088 -64 
C 1306 -64 1798 -13 2144 306 
L 2144 0 
L 2618 0 
L 2618 2739 
z
" transform="scale(0.015625)"/>
       <path id="CMSS17-72" d="M 954 1363 
C 954 1965 1395 2368 1958 2368 
L 1958 2789 
C 1549 2789 1165 2585 934 2253 
L 934 2758 
L 480 2758 
L 480 0 
L 954 0 
L 954 1363 
z
" transform="scale(0.015625)"/>
       <path id="CMSS17-63" d="M 2464 2541 
C 2464 2585 2170 2714 2093 2739 
C 1882 2816 1613 2816 1542 2816 
C 710 2816 211 2093 211 1363 
C 211 595 768 -64 1517 -64 
C 1946 -64 2253 76 2502 242 
L 2464 664 
C 2189 453 1869 337 1523 337 
C 1024 337 698 774 698 1369 
C 698 1831 909 2414 1549 2414 
C 1901 2414 2099 2343 2394 2145 
L 2464 2541 
z
" transform="scale(0.015625)"/>
       <path id="CMSS17-65" d="M 2502 1377 
C 2502 1590 2490 2003 2285 2345 
C 2061 2713 1696 2816 1421 2816 
C 755 2816 192 2188 192 1375 
C 192 582 774 -64 1510 -64 
C 1798 -64 2150 19 2470 248 
C 2470 274 2458 414 2451 420 
C 2451 433 2432 630 2432 656 
C 2125 407 1773 325 1517 325 
C 1107 325 666 667 646 1377 
L 2502 1377 
z
M 698 1728 
C 781 2084 1062 2421 1421 2421 
C 1517 2421 1965 2421 2080 1728 
L 698 1728 
z
" transform="scale(0.015625)"/>
       <path id="CMSS17-69" d="M 979 4183 
L 442 4183 
L 442 3648 
L 979 3648 
L 979 4183 
z
M 947 2739 
L 474 2739 
L 474 0 
L 947 0 
L 947 2739 
z
" transform="scale(0.015625)"/>
       <path id="CMSS17-6e" d="M 2618 1877 
C 2618 2283 2522 2816 1798 2816 
C 1389 2816 1120 2606 941 2389 
L 941 2758 
L 474 2758 
L 474 0 
L 960 0 
L 960 1559 
C 960 1964 1114 2428 1549 2428 
C 2112 2428 2131 2048 2131 1829 
L 2131 0 
L 2618 0 
L 2618 1877 
z
" transform="scale(0.015625)"/>
       <path id="CMSS17-73" d="M 2061 2627 
C 1683 2807 1389 2807 1197 2807 
C 742 2807 198 2648 198 2003 
C 198 1359 902 1218 1094 1179 
C 1389 1122 1715 1058 1715 740 
C 1715 337 1254 337 1171 337 
C 915 337 563 407 243 638 
L 166 210 
C 531 0 883 -64 1178 -64 
C 1965 -64 2163 416 2163 781 
C 2163 1094 1984 1305 1862 1401 
C 1651 1568 1574 1587 1050 1696 
C 960 1709 646 1779 646 2066 
C 646 2432 1050 2432 1139 2432 
C 1555 2432 1811 2303 1984 2208 
L 2061 2627 
z
" transform="scale(0.015625)"/>
       <path id="CMSS17-74" d="M 1069 2368 
L 1901 2368 
L 1901 2737 
L 1069 2737 
L 1069 3520 
L 614 3520 
L 614 2737 
L 109 2737 
L 109 2368 
L 602 2368 
L 602 749 
C 602 384 685 -64 1107 -64 
C 1427 -64 1722 25 2003 172 
L 1901 548 
C 1747 414 1562 337 1363 337 
C 1082 337 1069 696 1069 856 
L 1069 2368 
z
" transform="scale(0.015625)"/>
       <path id="CMSS17-61" d="M 2406 1791 
C 2406 2392 1978 2808 1402 2808 
C 1120 2808 813 2757 461 2553 
L 499 2135 
C 659 2248 934 2432 1395 2432 
C 1722 2432 1920 2180 1920 1782 
L 1920 1536 
C 896 1536 256 1238 256 726 
C 256 461 416 -64 947 -64 
C 1043 -64 1562 -64 1933 217 
L 1933 -19 
L 2406 -19 
L 2406 1791 
z
M 1920 816 
C 1920 701 1920 548 1728 434 
C 1562 325 1350 325 1261 325 
C 941 325 723 511 723 744 
C 723 1211 1722 1211 1920 1211 
L 1920 816 
z
" transform="scale(0.015625)"/>
       <path id="CMSS17-7a" d="M 2400 2502 
L 2400 2750 
L 250 2750 
L 250 2368 
L 1069 2368 
C 1146 2368 1222 2368 1299 2368 
L 1747 2368 
L 166 261 
L 166 0 
L 2419 0 
L 2419 395 
L 1549 395 
C 1472 395 1395 395 1318 395 
L 826 395 
L 2400 2502 
z
" transform="scale(0.015625)"/>
      </defs>
      <use xlink:href="#CMSS17-53" transform="scale(0.996264)"/>
      <use xlink:href="#CMSS17-6f" transform="translate(52.048516 0) scale(0.996264)"/>
      <use xlink:href="#CMSS17-75" transform="translate(98.89214 0) scale(0.996264)"/>
      <use xlink:href="#CMSS17-72" transform="translate(147.097083 0) scale(0.996264)"/>
      <use xlink:href="#CMSS17-63" transform="translate(179.006855 0) scale(0.996264)"/>
      <use xlink:href="#CMSS17-65" transform="translate(220.645677 0) scale(0.996264)"/>
      <use xlink:href="#CMSS17-69" transform="translate(293.513612 0) scale(0.996264)"/>
      <use xlink:href="#CMSS17-6e" transform="translate(315.694335 0) scale(0.996264)"/>
      <use xlink:href="#CMSS17-73" transform="translate(363.899278 0) scale(0.996264)"/>
      <use xlink:href="#CMSS17-74" transform="translate(399.81282 0) scale(0.996264)"/>
      <use xlink:href="#CMSS17-61" transform="translate(433.644387 0) scale(0.996264)"/>
      <use xlink:href="#CMSS17-6e" transform="translate(478.566308 0) scale(0.996264)"/>
      <use xlink:href="#CMSS17-63" transform="translate(526.771251 0) scale(0.996264)"/>
      <use xlink:href="#CMSS17-65" transform="translate(568.410073 0) scale(0.996264)"/>
      <use xlink:href="#CMSS17-73" transform="translate(641.278008 0) scale(0.996264)"/>
      <use xlink:href="#CMSS17-69" transform="translate(677.19155 0) scale(0.996264)"/>
      <use xlink:href="#CMSS17-7a" transform="translate(699.372273 0) scale(0.996264)"/>
      <use xlink:href="#CMSS17-65" transform="translate(740.050145 0) scale(0.996264)"/>
     </g>
    </g>
   </g>
   <g id="matplotlib.axis_2">
    <g id="ytick_1">
     <g id="line2d_23">
      <path d="M 41.861149 281.813726 
L 398.981149 281.813726 
" clip-path="url(#p63c9e96cf1)" style="fill: none; stroke: #b0b0b0; stroke-width: 0.8; stroke-linecap: square"/>
     </g>
     <g id="line2d_24">
      <defs>
       <path id="mf7d12a7d69" d="M 0 0 
L -3.5 0 
" style="stroke: #000000; stroke-width: 0.8"/>
      </defs>
      <g>
       <use xlink:href="#mf7d12a7d69" x="41.861149" y="281.813726" style="stroke: #000000; stroke-width: 0.8"/>
      </g>
     </g>
     <g id="text_7">
      <!-- $\mathdefault{0}$ -->
      <g transform="translate(29.008158 285.964816) scale(0.12 -0.12)">
       <defs>
        <path id="CMR17-30" d="M 2688 2025 
C 2688 2416 2682 3080 2413 3591 
C 2176 4039 1798 4198 1466 4198 
C 1158 4198 768 4058 525 3597 
C 269 3118 243 2524 243 2025 
C 243 1661 250 1106 448 619 
C 723 -39 1216 -128 1466 -128 
C 1760 -128 2208 -7 2470 600 
C 2662 1042 2688 1559 2688 2025 
z
M 1466 -26 
C 1056 -26 813 325 723 812 
C 653 1188 653 1738 653 2096 
C 653 2588 653 2997 736 3387 
C 858 3929 1216 4096 1466 4096 
C 1728 4096 2067 3923 2189 3400 
C 2272 3036 2278 2607 2278 2096 
C 2278 1680 2278 1169 2202 792 
C 2067 95 1690 -26 1466 -26 
z
" transform="scale(0.015625)"/>
       </defs>
       <use xlink:href="#CMR17-30" transform="scale(0.996264)"/>
      </g>
     </g>
    </g>
    <g id="ytick_2">
     <g id="line2d_25">
      <path d="M 41.861149 239.186619 
L 398.981149 239.186619 
" clip-path="url(#p63c9e96cf1)" style="fill: none; stroke: #b0b0b0; stroke-width: 0.8; stroke-linecap: square"/>
     </g>
     <g id="line2d_26">
      <g>
       <use xlink:href="#mf7d12a7d69" x="41.861149" y="239.186619" style="stroke: #000000; stroke-width: 0.8"/>
      </g>
     </g>
     <g id="text_8">
      <!-- $\mathdefault{2}$ -->
      <g transform="translate(29.008158 243.337709) scale(0.12 -0.12)">
       <defs>
        <path id="CMR17-32" d="M 2669 989 
L 2554 989 
C 2490 536 2438 459 2413 420 
C 2381 369 1920 369 1830 369 
L 602 369 
C 832 619 1280 1072 1824 1597 
C 2214 1967 2669 2402 2669 3035 
C 2669 3790 2067 4224 1395 4224 
C 691 4224 262 3604 262 3030 
C 262 2780 448 2748 525 2748 
C 589 2748 781 2787 781 3010 
C 781 3207 614 3264 525 3264 
C 486 3264 448 3258 422 3245 
C 544 3790 915 4058 1306 4058 
C 1862 4058 2227 3617 2227 3035 
C 2227 2479 1901 2000 1536 1584 
L 262 146 
L 262 0 
L 2515 0 
L 2669 989 
z
" transform="scale(0.015625)"/>
       </defs>
       <use xlink:href="#CMR17-32" transform="scale(0.996264)"/>
      </g>
     </g>
    </g>
    <g id="ytick_3">
     <g id="line2d_27">
      <path d="M 41.861149 196.559512 
L 398.981149 196.559512 
" clip-path="url(#p63c9e96cf1)" style="fill: none; stroke: #b0b0b0; stroke-width: 0.8; stroke-linecap: square"/>
     </g>
     <g id="line2d_28">
      <g>
       <use xlink:href="#mf7d12a7d69" x="41.861149" y="196.559512" style="stroke: #000000; stroke-width: 0.8"/>
      </g>
     </g>
     <g id="text_9">
      <!-- $\mathdefault{4}$ -->
      <g transform="translate(29.008158 200.710602) scale(0.12 -0.12)">
       <defs>
        <path id="CMR17-34" d="M 2150 4122 
C 2150 4256 2144 4256 2029 4256 
L 128 1254 
L 128 1088 
L 1779 1088 
L 1779 457 
C 1779 224 1766 160 1318 160 
L 1197 160 
L 1197 0 
C 1402 0 1747 0 1965 0 
C 2182 0 2528 0 2733 0 
L 2733 160 
L 2611 160 
C 2163 160 2150 224 2150 457 
L 2150 1088 
L 2803 1088 
L 2803 1254 
L 2150 1254 
L 2150 4122 
z
M 1798 3703 
L 1798 1254 
L 256 1254 
L 1798 3703 
z
" transform="scale(0.015625)"/>
       </defs>
       <use xlink:href="#CMR17-34" transform="scale(0.996264)"/>
      </g>
     </g>
    </g>
    <g id="ytick_4">
     <g id="line2d_29">
      <path d="M 41.861149 153.932405 
L 398.981149 153.932405 
" clip-path="url(#p63c9e96cf1)" style="fill: none; stroke: #b0b0b0; stroke-width: 0.8; stroke-linecap: square"/>
     </g>
     <g id="line2d_30">
      <g>
       <use xlink:href="#mf7d12a7d69" x="41.861149" y="153.932405" style="stroke: #000000; stroke-width: 0.8"/>
      </g>
     </g>
     <g id="text_10">
      <!-- $\mathdefault{6}$ -->
      <g transform="translate(29.008158 158.083495) scale(0.12 -0.12)">
       <defs>
        <path id="CMR17-36" d="M 678 2176 
C 678 3690 1395 4032 1811 4032 
C 1946 4032 2272 4009 2400 3776 
C 2298 3776 2106 3776 2106 3553 
C 2106 3381 2246 3323 2336 3323 
C 2394 3323 2566 3348 2566 3560 
C 2566 3954 2246 4179 1805 4179 
C 1043 4179 243 3390 243 1984 
C 243 253 966 -128 1478 -128 
C 2099 -128 2688 427 2688 1283 
C 2688 2081 2170 2662 1517 2662 
C 1126 2662 838 2407 678 1960 
L 678 2176 
z
M 1478 25 
C 691 25 691 1200 691 1436 
C 691 1896 909 2560 1504 2560 
C 1613 2560 1926 2560 2138 2120 
C 2253 1870 2253 1609 2253 1289 
C 2253 944 2253 690 2118 434 
C 1978 171 1773 25 1478 25 
z
" transform="scale(0.015625)"/>
       </defs>
       <use xlink:href="#CMR17-36" transform="scale(0.996264)"/>
      </g>
     </g>
    </g>
    <g id="ytick_5">
     <g id="line2d_31">
      <path d="M 41.861149 111.305298 
L 398.981149 111.305298 
" clip-path="url(#p63c9e96cf1)" style="fill: none; stroke: #b0b0b0; stroke-width: 0.8; stroke-linecap: square"/>
     </g>
     <g id="line2d_32">
      <g>
       <use xlink:href="#mf7d12a7d69" x="41.861149" y="111.305298" style="stroke: #000000; stroke-width: 0.8"/>
      </g>
     </g>
     <g id="text_11">
      <!-- $\mathdefault{8}$ -->
      <g transform="translate(29.008158 115.456388) scale(0.12 -0.12)">
       <defs>
        <path id="CMR17-38" d="M 1741 2264 
C 2144 2467 2554 2773 2554 3263 
C 2554 3841 1990 4179 1472 4179 
C 890 4179 378 3759 378 3180 
C 378 3021 416 2747 666 2505 
C 730 2442 998 2251 1171 2130 
C 883 1983 211 1634 211 934 
C 211 279 838 -128 1459 -128 
C 2144 -128 2720 362 2720 1010 
C 2720 1590 2330 1857 2074 2029 
L 1741 2264 
z
M 902 2822 
C 851 2854 595 3051 595 3351 
C 595 3739 998 4032 1459 4032 
C 1965 4032 2336 3676 2336 3262 
C 2336 2669 1670 2331 1638 2331 
C 1632 2331 1626 2331 1574 2370 
L 902 2822 
z
M 2080 1519 
C 2176 1449 2483 1240 2483 851 
C 2483 381 2010 25 1472 25 
C 890 25 448 438 448 940 
C 448 1443 838 1862 1280 2060 
L 2080 1519 
z
" transform="scale(0.015625)"/>
       </defs>
       <use xlink:href="#CMR17-38" transform="scale(0.996264)"/>
      </g>
     </g>
    </g>
    <g id="ytick_6">
     <g id="line2d_33">
      <path d="M 41.861149 68.678191 
L 398.981149 68.678191 
" clip-path="url(#p63c9e96cf1)" style="fill: none; stroke: #b0b0b0; stroke-width: 0.8; stroke-linecap: square"/>
     </g>
     <g id="line2d_34">
      <g>
       <use xlink:href="#mf7d12a7d69" x="41.861149" y="68.678191" style="stroke: #000000; stroke-width: 0.8"/>
      </g>
     </g>
     <g id="text_12">
      <!-- $\mathdefault{10}$ -->
      <g transform="translate(23.155168 72.829281) scale(0.12 -0.12)">
       <defs>
        <path id="CMR17-31" d="M 1702 4058 
C 1702 4192 1696 4192 1606 4192 
C 1357 3916 979 3827 621 3827 
C 602 3827 570 3827 563 3808 
C 557 3795 557 3782 557 3648 
C 755 3648 1088 3686 1344 3839 
L 1344 461 
C 1344 236 1331 160 781 160 
L 589 160 
L 589 0 
C 896 0 1216 0 1523 0 
C 1830 0 2150 0 2458 0 
L 2458 160 
L 2266 160 
C 1715 160 1702 230 1702 458 
L 1702 4058 
z
" transform="scale(0.015625)"/>
       </defs>
       <use xlink:href="#CMR17-31" transform="scale(0.996264)"/>
       <use xlink:href="#CMR17-30" transform="translate(45.690477 0) scale(0.996264)"/>
      </g>
     </g>
    </g>
    <g id="ytick_7">
     <g id="line2d_35">
      <path d="M 41.861149 26.051085 
L 398.981149 26.051085 
" clip-path="url(#p63c9e96cf1)" style="fill: none; stroke: #b0b0b0; stroke-width: 0.8; stroke-linecap: square"/>
     </g>
     <g id="line2d_36">
      <g>
       <use xlink:href="#mf7d12a7d69" x="41.861149" y="26.051085" style="stroke: #000000; stroke-width: 0.8"/>
      </g>
     </g>
     <g id="text_13">
      <!-- $\mathdefault{12}$ -->
      <g transform="translate(23.155168 30.202174) scale(0.12 -0.12)">
       <use xlink:href="#CMR17-31" transform="scale(0.996264)"/>
       <use xlink:href="#CMR17-32" transform="translate(45.690477 0) scale(0.996264)"/>
      </g>
     </g>
    </g>
    <g id="text_14">
     <!-- Time (seconds) -->
     <g transform="translate(16.166376 193.942) rotate(-90) scale(0.12 -0.12)">
      <defs>
       <path id="CMSS17-54" d="M 2317 3968 
L 2848 3968 
C 2925 3968 3002 3968 3078 3968 
L 3878 3968 
L 3878 4376 
L 218 4376 
L 218 3968 
L 1018 3968 
C 1094 3968 1171 3968 1248 3968 
L 1779 3968 
L 1779 -32 
L 2317 -32 
L 2317 3968 
z
" transform="scale(0.015625)"/>
       <path id="CMSS17-6d" d="M 4288 1877 
C 4288 2308 4179 2816 3462 2816 
C 2982 2816 2694 2516 2566 2331 
C 2451 2670 2182 2816 1798 2816 
C 1363 2816 1088 2568 941 2389 
L 941 2758 
L 474 2758 
L 474 0 
L 960 0 
L 960 1559 
C 960 1939 1101 2428 1555 2428 
C 2138 2428 2138 2016 2138 1829 
L 2138 0 
L 2624 0 
L 2624 1559 
C 2624 1939 2765 2428 3219 2428 
C 3802 2428 3802 2016 3802 1829 
L 3802 0 
L 4288 0 
L 4288 1877 
z
" transform="scale(0.015625)"/>
       <path id="CMSS17-28" d="M 1613 4768 
C 1267 4417 474 3601 474 1588 
C 474 -433 1267 -1243 1613 -1600 
L 2003 -1600 
C 1216 -784 960 357 960 1581 
C 960 2798 1203 3946 2003 4768 
L 1613 4768 
z
" transform="scale(0.015625)"/>
       <path id="CMSS17-64" d="M 2611 4416 
L 2138 4416 
L 2138 2438 
C 1939 2603 1613 2756 1254 2756 
C 672 2756 211 2131 211 1347 
C 211 562 666 -64 1235 -64 
C 1677 -64 1971 172 2125 306 
L 2125 -13 
L 2611 -13 
L 2611 4416 
z
M 2125 836 
C 2125 747 2125 653 1926 482 
C 1798 375 1645 325 1498 325 
C 1152 325 698 576 698 1340 
C 698 2134 1210 2368 1562 2368 
C 1798 2368 1990 2254 2125 2065 
L 2125 836 
z
" transform="scale(0.015625)"/>
       <path id="CMSS17-29" d="M 723 -1600 
C 1069 -1249 1862 -433 1862 1581 
C 1862 3601 1069 4411 723 4768 
L 333 4768 
C 1120 3952 1376 2811 1376 1588 
C 1376 370 1133 -778 333 -1600 
L 723 -1600 
z
" transform="scale(0.015625)"/>
      </defs>
      <use xlink:href="#CMSS17-54" transform="scale(0.996264)"/>
      <use xlink:href="#CMSS17-69" transform="translate(63.819454 0) scale(0.996264)"/>
      <use xlink:href="#CMSS17-6d" transform="translate(86.000177 0) scale(0.996264)"/>
      <use xlink:href="#CMSS17-65" transform="translate(160.229431 0) scale(0.996264)"/>
      <use xlink:href="#CMSS17-28" transform="translate(233.097366 0) scale(0.996264)"/>
      <use xlink:href="#CMSS17-73" transform="translate(269.53128 0) scale(0.996264)"/>
      <use xlink:href="#CMSS17-65" transform="translate(305.444822 0) scale(0.996264)"/>
      <use xlink:href="#CMSS17-63" transform="translate(347.083644 0) scale(0.996264)"/>
      <use xlink:href="#CMSS17-6f" transform="translate(388.722467 0) scale(0.996264)"/>
      <use xlink:href="#CMSS17-6e" transform="translate(435.56609 0) scale(0.996264)"/>
      <use xlink:href="#CMSS17-64" transform="translate(483.771033 0) scale(0.996264)"/>
      <use xlink:href="#CMSS17-73" transform="translate(531.975976 0) scale(0.996264)"/>
      <use xlink:href="#CMSS17-29" transform="translate(567.889518 0) scale(0.996264)"/>
     </g>
    </g>
   </g>
   <g id="line2d_37">
    <path d="M 41.861149 277.178625 
L 237.082962 267.565445 
L 314.769532 251.530577 
L 373.537154 225.893654 
L 398.981149 207.722763 
" clip-path="url(#p63c9e96cf1)" style="fill: none; stroke: #008000; stroke-width: 1.5; stroke-linecap: square"/>
    <defs>
     <path id="m31586ccbfa" d="M -2 4 
L 0 2 
L 2 4 
L 4 2 
L 2 0 
L 4 -2 
L 2 -4 
L 0 -2 
L -2 -4 
L -4 -2 
L -2 0 
L -4 2 
z
" style="stroke: #000000; stroke-opacity: 0.9; stroke-width: 0.2; stroke-linejoin: miter"/>
    </defs>
    <g clip-path="url(#p63c9e96cf1)">
     <use xlink:href="#m31586ccbfa" x="41.861149" y="277.178625" style="fill: #008000; stroke: #000000; stroke-opacity: 0.9; stroke-width: 0.2; stroke-linejoin: miter"/>
     <use xlink:href="#m31586ccbfa" x="237.082962" y="267.565445" style="fill: #008000; stroke: #000000; stroke-opacity: 0.9; stroke-width: 0.2; stroke-linejoin: miter"/>
     <use xlink:href="#m31586ccbfa" x="314.769532" y="251.530577" style="fill: #008000; stroke: #000000; stroke-opacity: 0.9; stroke-width: 0.2; stroke-linejoin: miter"/>
     <use xlink:href="#m31586ccbfa" x="373.537154" y="225.893654" style="fill: #008000; stroke: #000000; stroke-opacity: 0.9; stroke-width: 0.2; stroke-linejoin: miter"/>
     <use xlink:href="#m31586ccbfa" x="398.981149" y="207.722763" style="fill: #008000; stroke: #000000; stroke-opacity: 0.9; stroke-width: 0.2; stroke-linejoin: miter"/>
    </g>
   </g>
   <g id="line2d_38">
    <path d="M 41.861149 240.633085 
L 237.082962 193.741114 
L 314.769532 146.716467 
L 373.537154 89.881533 
L 398.981149 51.201483 
" clip-path="url(#p63c9e96cf1)" style="fill: none; stroke: #1e90ff; stroke-width: 1.5; stroke-linecap: square"/>
    <defs>
     <path id="mf42feee34f" d="M 0 -4 
L -0.898056 -1.236068 
L -3.804226 -1.236068 
L -1.453085 0.472136 
L -2.351141 3.236068 
L -0 1.527864 
L 2.351141 3.236068 
L 1.453085 0.472136 
L 3.804226 -1.236068 
L 0.898056 -1.236068 
z
" style="stroke: #000000; stroke-opacity: 0.9; stroke-width: 0.2; stroke-linejoin: bevel"/>
    </defs>
    <g clip-path="url(#p63c9e96cf1)">
     <use xlink:href="#mf42feee34f" x="41.861149" y="240.633085" style="fill: #1e90ff; stroke: #000000; stroke-opacity: 0.9; stroke-width: 0.2; stroke-linejoin: bevel"/>
     <use xlink:href="#mf42feee34f" x="237.082962" y="193.741114" style="fill: #1e90ff; stroke: #000000; stroke-opacity: 0.9; stroke-width: 0.2; stroke-linejoin: bevel"/>
     <use xlink:href="#mf42feee34f" x="314.769532" y="146.716467" style="fill: #1e90ff; stroke: #000000; stroke-opacity: 0.9; stroke-width: 0.2; stroke-linejoin: bevel"/>
     <use xlink:href="#mf42feee34f" x="373.537154" y="89.881533" style="fill: #1e90ff; stroke: #000000; stroke-opacity: 0.9; stroke-width: 0.2; stroke-linejoin: bevel"/>
     <use xlink:href="#mf42feee34f" x="398.981149" y="51.201483" style="fill: #1e90ff; stroke: #000000; stroke-opacity: 0.9; stroke-width: 0.2; stroke-linejoin: bevel"/>
    </g>
   </g>
   <g id="line2d_39">
    <path d="M 41.861149 240.706851 
L 237.082962 182.953366 
L 314.769532 134.979882 
L 373.537154 68.394188 
L 398.981149 35.258625 
" clip-path="url(#p63c9e96cf1)" style="fill: none; stroke: #ff8c00; stroke-width: 1.5; stroke-linecap: square"/>
    <defs>
     <path id="m8b3e07b905" d="M -0 5.656854 
L 5.656854 0 
L 0 -5.656854 
L -5.656854 -0 
z
" style="stroke: #000000; stroke-opacity: 0.9; stroke-width: 0.2; stroke-linejoin: miter"/>
    </defs>
    <g clip-path="url(#p63c9e96cf1)">
     <use xlink:href="#m8b3e07b905" x="41.861149" y="240.706851" style="fill: #ff8c00; stroke: #000000; stroke-opacity: 0.9; stroke-width: 0.2; stroke-linejoin: miter"/>
     <use xlink:href="#m8b3e07b905" x="237.082962" y="182.953366" style="fill: #ff8c00; stroke: #000000; stroke-opacity: 0.9; stroke-width: 0.2; stroke-linejoin: miter"/>
     <use xlink:href="#m8b3e07b905" x="314.769532" y="134.979882" style="fill: #ff8c00; stroke: #000000; stroke-opacity: 0.9; stroke-width: 0.2; stroke-linejoin: miter"/>
     <use xlink:href="#m8b3e07b905" x="373.537154" y="68.394188" style="fill: #ff8c00; stroke: #000000; stroke-opacity: 0.9; stroke-width: 0.2; stroke-linejoin: miter"/>
     <use xlink:href="#m8b3e07b905" x="398.981149" y="35.258625" style="fill: #ff8c00; stroke: #000000; stroke-opacity: 0.9; stroke-width: 0.2; stroke-linejoin: miter"/>
    </g>
   </g>
   <g id="line2d_40">
    <path d="M 41.861149 188.084924 
L 237.082962 196.744109 
L 314.769532 154.031407 
L 373.537154 75.99944 
L 398.981149 43.852676 
" clip-path="url(#p63c9e96cf1)" style="fill: none; stroke: #ff0000; stroke-width: 1.5; stroke-linecap: square"/>
    <defs>
     <path id="mf4f918f496" d="M -4 4 
L 4 4 
L 4 -4 
L -4 -4 
z
" style="stroke: #000000; stroke-opacity: 0.9; stroke-width: 0.2; stroke-linejoin: miter"/>
    </defs>
    <g clip-path="url(#p63c9e96cf1)">
     <use xlink:href="#mf4f918f496" x="41.861149" y="188.084924" style="fill: #ff0000; stroke: #000000; stroke-opacity: 0.9; stroke-width: 0.2; stroke-linejoin: miter"/>
     <use xlink:href="#mf4f918f496" x="237.082962" y="196.744109" style="fill: #ff0000; stroke: #000000; stroke-opacity: 0.9; stroke-width: 0.2; stroke-linejoin: miter"/>
     <use xlink:href="#mf4f918f496" x="314.769532" y="154.031407" style="fill: #ff0000; stroke: #000000; stroke-opacity: 0.9; stroke-width: 0.2; stroke-linejoin: miter"/>
     <use xlink:href="#mf4f918f496" x="373.537154" y="75.99944" style="fill: #ff0000; stroke: #000000; stroke-opacity: 0.9; stroke-width: 0.2; stroke-linejoin: miter"/>
     <use xlink:href="#mf4f918f496" x="398.981149" y="43.852676" style="fill: #ff0000; stroke: #000000; stroke-opacity: 0.9; stroke-width: 0.2; stroke-linejoin: miter"/>
    </g>
   </g>
   <g id="line2d_41">
    <path d="M 41.861149 191.452486 
L 237.082962 205.455448 
L 314.769532 162.814424 
L 373.537154 101.738966 
L 398.981149 74.88035 
" clip-path="url(#p63c9e96cf1)" style="fill: none; stroke: #0000ff; stroke-width: 1.5; stroke-linecap: square"/>
    <defs>
     <path id="m4e82e8b677" d="M 0 -4 
L -3.464102 -2 
L -3.464102 2 
L -0 4 
L 3.464102 2 
L 3.464102 -2 
z
" style="stroke: #000000; stroke-opacity: 0.9; stroke-width: 0.2; stroke-linejoin: miter"/>
    </defs>
    <g clip-path="url(#p63c9e96cf1)">
     <use xlink:href="#m4e82e8b677" x="41.861149" y="191.452486" style="fill: #0000ff; stroke: #000000; stroke-opacity: 0.9; stroke-width: 0.2; stroke-linejoin: miter"/>
     <use xlink:href="#m4e82e8b677" x="237.082962" y="205.455448" style="fill: #0000ff; stroke: #000000; stroke-opacity: 0.9; stroke-width: 0.2; stroke-linejoin: miter"/>
     <use xlink:href="#m4e82e8b677" x="314.769532" y="162.814424" style="fill: #0000ff; stroke: #000000; stroke-opacity: 0.9; stroke-width: 0.2; stroke-linejoin: miter"/>
     <use xlink:href="#m4e82e8b677" x="373.537154" y="101.738966" style="fill: #0000ff; stroke: #000000; stroke-opacity: 0.9; stroke-width: 0.2; stroke-linejoin: miter"/>
     <use xlink:href="#m4e82e8b677" x="398.981149" y="74.88035" style="fill: #0000ff; stroke: #000000; stroke-opacity: 0.9; stroke-width: 0.2; stroke-linejoin: miter"/>
    </g>
   </g>
   <g id="patch_3">
    <path d="M 41.861149 289.274625 
L 41.861149 23.162625 
" style="fill: none; stroke: #000000; stroke-width: 0.8; stroke-linejoin: miter; stroke-linecap: square"/>
   </g>
   <g id="patch_4">
    <path d="M 398.981149 289.274625 
L 398.981149 23.162625 
" style="fill: none; stroke: #000000; stroke-width: 0.8; stroke-linejoin: miter; stroke-linecap: square"/>
   </g>
   <g id="patch_5">
    <path d="M 41.861149 289.274625 
L 398.981149 289.274625 
" style="fill: none; stroke: #000000; stroke-width: 0.8; stroke-linejoin: miter; stroke-linecap: square"/>
   </g>
   <g id="patch_6">
    <path d="M 41.861149 23.162625 
L 398.981149 23.162625 
" style="fill: none; stroke: #000000; stroke-width: 0.8; stroke-linejoin: miter; stroke-linecap: square"/>
   </g>
   <g id="text_15">
    <!-- DBPedia Strong Link -->
    <g transform="translate(158.10566 17.162625) scale(0.144 -0.144)">
     <defs>
      <path id="CMSS17-44" d="M 570 4416 
L 570 0 
L 2144 0 
C 3194 0 4000 980 4000 2170 
C 4000 3398 3194 4416 2144 4416 
L 570 4416 
z
M 1094 357 
L 1094 4059 
L 2003 4059 
C 2861 4059 3475 3277 3475 2170 
C 3475 1107 2867 357 2003 357 
L 1094 357 
z
" transform="scale(0.015625)"/>
      <path id="CMSS17-42" d="M 570 4416 
L 570 0 
L 2163 0 
C 3034 0 3667 574 3667 1200 
C 3667 1685 3251 2176 2502 2317 
C 3334 2558 3501 3040 3501 3313 
C 3501 3883 2874 4416 1997 4416 
L 570 4416 
z
M 1088 2496 
L 1088 4059 
L 1824 4059 
C 2483 4059 3002 3724 3002 3306 
C 3002 2926 2592 2496 1766 2496 
L 1088 2496 
z
M 1088 357 
L 1088 2107 
L 1939 2107 
C 2630 2107 3162 1679 3162 1206 
C 3162 772 2694 357 1984 357 
L 1088 357 
z
" transform="scale(0.015625)"/>
      <path id="CMSS17-50" d="M 2106 1856 
C 2874 1856 3501 2453 3501 3158 
C 3501 3850 2899 4453 2067 4453 
L 570 4453 
L 570 0 
L 1107 0 
L 1107 1856 
L 2106 1856 
z
M 1926 4096 
C 2669 4096 2995 3627 2995 3157 
C 2995 2720 2694 2226 1926 2226 
L 1094 2226 
L 1094 4096 
L 1926 4096 
z
" transform="scale(0.015625)"/>
      <path id="CMSS17-67" d="M 2848 2808 
C 2483 2808 2170 2738 1914 2617 
C 1702 2777 1485 2808 1338 2808 
C 781 2808 358 2349 358 1814 
C 358 1468 550 1207 563 1195 
C 448 1035 384 863 384 672 
C 384 448 474 289 544 200 
C 211 -3 166 -314 166 -435 
C 166 -898 749 -1280 1498 -1280 
C 2253 -1280 2835 -898 2835 -428 
C 2835 448 1856 448 1587 448 
L 1069 448 
C 973 448 717 448 717 791 
C 717 921 774 1004 781 1010 
C 877 940 1075 832 1338 832 
C 1869 832 2310 1278 2310 1827 
C 2310 2132 2170 2355 2112 2432 
L 2131 2432 
C 2150 2432 2419 2432 2515 2432 
C 2720 2432 2739 2429 2918 2419 
L 2848 2808 
z
M 1338 1182 
C 1120 1182 813 1315 813 1823 
C 813 2375 1165 2464 1331 2464 
C 1549 2464 1856 2331 1856 1823 
C 1856 1271 1504 1182 1338 1182 
z
M 1581 -10 
C 1734 -10 2381 -10 2381 -442 
C 2381 -714 1984 -929 1504 -929 
C 1018 -929 621 -720 621 -435 
C 621 -403 621 -10 1062 -10 
L 1581 -10 
z
" transform="scale(0.015625)"/>
      <path id="CMSS17-4c" d="M 1670 414 
C 1594 414 1517 414 1440 414 
L 1101 414 
L 1101 4416 
L 563 4416 
L 563 0 
L 3002 0 
L 3002 414 
L 1670 414 
z
" transform="scale(0.015625)"/>
     </defs>
     <use xlink:href="#CMSS17-44" transform="scale(0.996264)"/>
     <use xlink:href="#CMSS17-42" transform="translate(67.542842 0) scale(0.996264)"/>
     <use xlink:href="#CMSS17-50" transform="translate(129.880882 0) scale(0.996264)"/>
     <use xlink:href="#CMSS17-65" transform="translate(187.014014 0) scale(0.996264)"/>
     <use xlink:href="#CMSS17-64" transform="translate(228.652836 0) scale(0.996264)"/>
     <use xlink:href="#CMSS17-69" transform="translate(276.857779 0) scale(0.996264)"/>
     <use xlink:href="#CMSS17-61" transform="translate(299.038502 0) scale(0.996264)"/>
     <use xlink:href="#CMSS17-53" transform="translate(375.189536 0) scale(0.996264)"/>
     <use xlink:href="#CMSS17-74" transform="translate(427.238052 0) scale(0.996264)"/>
     <use xlink:href="#CMSS17-72" transform="translate(461.069619 0) scale(0.996264)"/>
     <use xlink:href="#CMSS17-6f" transform="translate(492.979391 0) scale(0.996264)"/>
     <use xlink:href="#CMSS17-6e" transform="translate(539.823015 0) scale(0.996264)"/>
     <use xlink:href="#CMSS17-67" transform="translate(588.027958 0) scale(0.996264)"/>
     <use xlink:href="#CMSS17-4c" transform="translate(666.100694 0) scale(0.996264)"/>
     <use xlink:href="#CMSS17-69" transform="translate(716.7878 0) scale(0.996264)"/>
     <use xlink:href="#CMSS17-6e" transform="translate(738.968523 0) scale(0.996264)"/>
     <use xlink:href="#CMSS17-6b" transform="translate(787.173466 0) scale(0.996264)"/>
    </g>
   </g>
   <g id="legend_1">
    <g id="patch_7">
     <path d="M 172.239908 116.385604 
L 268.602389 116.385604 
Q 271.002389 116.385604 271.002389 113.985604 
L 271.002389 31.562625 
Q 271.002389 29.162625 268.602389 29.162625 
L 172.239908 29.162625 
Q 169.839908 29.162625 169.839908 31.562625 
L 169.839908 113.985604 
Q 169.839908 116.385604 172.239908 116.385604 
z
" style="fill: #ffffff; opacity: 0.8; stroke: #cccccc; stroke-linejoin: miter"/>
    </g>
    <g id="line2d_42">
     <path d="M 174.639908 38.162625 
L 186.639908 38.162625 
L 198.639908 38.162625 
" style="fill: none; stroke: #008000; stroke-width: 1.5; stroke-linecap: square"/>
     <g>
      <use xlink:href="#m31586ccbfa" x="186.639908" y="38.162625" style="fill: #008000; stroke: #000000; stroke-opacity: 0.9; stroke-width: 0.2; stroke-linejoin: miter"/>
     </g>
    </g>
    <g id="text_16">
     <!-- DLV$^\exists$ -->
     <g transform="translate(208.239908 42.362625) scale(0.12 -0.12)">
      <defs>
       <path id="CMSS17-56" d="M 3910 4416 
L 3411 4416 
L 2304 1362 
C 2272 1273 2074 688 2035 484 
L 2029 484 
C 1978 726 1773 1292 1664 1604 
L 922 3672 
L 646 4416 
L 83 4416 
L 1715 0 
L 2278 0 
L 3910 4416 
z
" transform="scale(0.015625)"/>
       <path id="CMSY10-39" d="M 3200 4198 
C 3200 4408 3181 4428 2976 4428 
L 576 4428 
C 467 4428 352 4428 352 4300 
C 352 4172 467 4172 576 4172 
L 2944 4172 
L 2944 2363 
L 666 2363 
C 557 2363 442 2363 442 2235 
C 442 2107 557 2107 666 2107 
L 2944 2107 
L 2944 256 
L 576 256 
C 467 256 352 256 352 128 
C 352 0 467 0 576 0 
L 2976 0 
C 3181 0 3200 19 3200 230 
L 3200 4198 
z
" transform="scale(0.015625)"/>
      </defs>
      <use xlink:href="#CMSS17-44" transform="scale(0.996264)"/>
      <use xlink:href="#CMSS17-4c" transform="translate(67.542842 0) scale(0.996264)"/>
      <use xlink:href="#CMSS17-56" transform="translate(107.820238 0) scale(0.996264)"/>
      <use xlink:href="#CMSY10-39" transform="translate(170.038093 36.153639) scale(0.697382)"/>
     </g>
    </g>
    <g id="line2d_43">
     <path d="M 174.639908 54.887221 
L 186.639908 54.887221 
L 198.639908 54.887221 
" style="fill: none; stroke: #1e90ff; stroke-width: 1.5; stroke-linecap: square"/>
     <g>
      <use xlink:href="#mf42feee34f" x="186.639908" y="54.887221" style="fill: #1e90ff; stroke: #000000; stroke-opacity: 0.9; stroke-width: 0.2; stroke-linejoin: bevel"/>
     </g>
    </g>
    <g id="text_17">
     <!-- Vadalog-I -->
     <g transform="translate(208.239908 59.087221) scale(0.12 -0.12)">
      <defs>
       <path id="CMSS17-6c" d="M 947 4416 
L 474 4416 
L 474 0 
L 947 0 
L 947 4416 
z
" transform="scale(0.015625)"/>
       <path id="CMSS17-2d" d="M 1664 1216 
L 1664 1585 
L 64 1585 
L 64 1216 
L 1664 1216 
z
" transform="scale(0.015625)"/>
       <path id="CMSS17-49" d="M 1094 4416 
L 557 4416 
L 557 0 
L 1094 0 
L 1094 4416 
z
" transform="scale(0.015625)"/>
      </defs>
      <use xlink:href="#CMSS17-56" transform="scale(0.996264)"/>
      <use xlink:href="#CMSS17-61" transform="translate(59.615401 0) scale(0.996264)"/>
      <use xlink:href="#CMSS17-64" transform="translate(104.537322 0) scale(0.996264)"/>
      <use xlink:href="#CMSS17-61" transform="translate(152.742265 0) scale(0.996264)"/>
      <use xlink:href="#CMSS17-6c" transform="translate(197.664185 0) scale(0.996264)"/>
      <use xlink:href="#CMSS17-6f" transform="translate(219.844908 0) scale(0.996264)"/>
      <use xlink:href="#CMSS17-67" transform="translate(266.688532 0) scale(0.996264)"/>
      <use xlink:href="#CMSS17-2d" transform="translate(313.532155 0) scale(0.996264)"/>
      <use xlink:href="#CMSS17-49" transform="translate(344.761268 0) scale(0.996264)"/>
     </g>
    </g>
    <g id="line2d_44">
     <path d="M 174.639908 71.611816 
L 186.639908 71.611816 
L 198.639908 71.611816 
" style="fill: none; stroke: #ff8c00; stroke-width: 1.5; stroke-linecap: square"/>
     <g>
      <use xlink:href="#m8b3e07b905" x="186.639908" y="71.611816" style="fill: #ff8c00; stroke: #000000; stroke-opacity: 0.9; stroke-width: 0.2; stroke-linejoin: miter"/>
     </g>
    </g>
    <g id="text_18">
     <!-- Vadalog-P -->
     <g transform="translate(208.239908 75.811816) scale(0.12 -0.12)">
      <use xlink:href="#CMSS17-56" transform="scale(0.996264)"/>
      <use xlink:href="#CMSS17-61" transform="translate(59.615401 0) scale(0.996264)"/>
      <use xlink:href="#CMSS17-64" transform="translate(104.537322 0) scale(0.996264)"/>
      <use xlink:href="#CMSS17-61" transform="translate(152.742265 0) scale(0.996264)"/>
      <use xlink:href="#CMSS17-6c" transform="translate(197.664185 0) scale(0.996264)"/>
      <use xlink:href="#CMSS17-6f" transform="translate(219.844908 0) scale(0.996264)"/>
      <use xlink:href="#CMSS17-67" transform="translate(266.688532 0) scale(0.996264)"/>
      <use xlink:href="#CMSS17-2d" transform="translate(313.532155 0) scale(0.996264)"/>
      <use xlink:href="#CMSS17-50" transform="translate(344.761268 0) scale(0.996264)"/>
     </g>
    </g>
    <g id="line2d_45">
     <path d="M 174.639908 88.336412 
L 186.639908 88.336412 
L 198.639908 88.336412 
" style="fill: none; stroke: #ff0000; stroke-width: 1.5; stroke-linecap: square"/>
     <g>
      <use xlink:href="#mf4f918f496" x="186.639908" y="88.336412" style="fill: #ff0000; stroke: #000000; stroke-opacity: 0.9; stroke-width: 0.2; stroke-linejoin: miter"/>
     </g>
    </g>
    <g id="text_19">
     <!-- Vadalog-PR -->
     <g transform="translate(208.239908 92.536412) scale(0.12 -0.12)">
      <defs>
       <path id="CMSS17-52" d="M 2522 2109 
L 2534 2115 
C 3533 2459 3539 3147 3539 3268 
C 3539 3873 2925 4453 2003 4453 
L 570 4453 
L 570 32 
L 1094 32 
L 1094 2048 
L 2035 2048 
L 3168 32 
L 3706 32 
L 2522 2109 
z
M 1094 2437 
L 1094 4096 
L 1933 4096 
C 2746 4096 3034 3637 3034 3267 
C 3034 2922 2778 2437 1933 2437 
L 1094 2437 
z
" transform="scale(0.015625)"/>
      </defs>
      <use xlink:href="#CMSS17-56" transform="scale(0.996264)"/>
      <use xlink:href="#CMSS17-61" transform="translate(59.615401 0) scale(0.996264)"/>
      <use xlink:href="#CMSS17-64" transform="translate(104.537322 0) scale(0.996264)"/>
      <use xlink:href="#CMSS17-61" transform="translate(152.742265 0) scale(0.996264)"/>
      <use xlink:href="#CMSS17-6c" transform="translate(197.664185 0) scale(0.996264)"/>
      <use xlink:href="#CMSS17-6f" transform="translate(219.844908 0) scale(0.996264)"/>
      <use xlink:href="#CMSS17-67" transform="translate(266.688532 0) scale(0.996264)"/>
      <use xlink:href="#CMSS17-2d" transform="translate(313.532155 0) scale(0.996264)"/>
      <use xlink:href="#CMSS17-50" transform="translate(344.761268 0) scale(0.996264)"/>
      <use xlink:href="#CMSS17-52" transform="translate(404.496854 0) scale(0.996264)"/>
     </g>
    </g>
    <g id="line2d_46">
     <path d="M 174.639908 105.061008 
L 186.639908 105.061008 
L 198.639908 105.061008 
" style="fill: none; stroke: #0000ff; stroke-width: 1.5; stroke-linecap: square"/>
     <g>
      <use xlink:href="#m4e82e8b677" x="186.639908" y="105.061008" style="fill: #0000ff; stroke: #000000; stroke-opacity: 0.9; stroke-width: 0.2; stroke-linejoin: miter"/>
     </g>
    </g>
    <g id="text_20">
     <!-- Vadalog-IR -->
     <g transform="translate(208.239908 109.261008) scale(0.12 -0.12)">
      <use xlink:href="#CMSS17-56" transform="scale(0.996264)"/>
      <use xlink:href="#CMSS17-61" transform="translate(59.615401 0) scale(0.996264)"/>
      <use xlink:href="#CMSS17-64" transform="translate(104.537322 0) scale(0.996264)"/>
      <use xlink:href="#CMSS17-61" transform="translate(152.742265 0) scale(0.996264)"/>
      <use xlink:href="#CMSS17-6c" transform="translate(197.664185 0) scale(0.996264)"/>
      <use xlink:href="#CMSS17-6f" transform="translate(219.844908 0) scale(0.996264)"/>
      <use xlink:href="#CMSS17-67" transform="translate(266.688532 0) scale(0.996264)"/>
      <use xlink:href="#CMSS17-2d" transform="translate(313.532155 0) scale(0.996264)"/>
      <use xlink:href="#CMSS17-49" transform="translate(344.761268 0) scale(0.996264)"/>
      <use xlink:href="#CMSS17-52" transform="translate(370.545194 0) scale(0.996264)"/>
     </g>
    </g>
   </g>
  </g>
 </g>
 <defs>
  <clipPath id="p63c9e96cf1">
   <rect x="41.861149" y="23.162625" width="357.12" height="266.112"/>
  </clipPath>
 </defs>
</svg>
