<?xml version="1.0" encoding="utf-8" standalone="no"?>
<!DOCTYPE svg PUBLIC "-//W3C//DTD SVG 1.1//EN"
  "http://www.w3.org/Graphics/SVG/1.1/DTD/svg11.dtd">
<svg xmlns:xlink="http://www.w3.org/1999/xlink" width="407.883072pt" height="328.728176pt" viewBox="0 0 407.883072 328.728176" xmlns="http://www.w3.org/2000/svg" version="1.1">
 <metadata>
  <rdf:RDF xmlns:dc="http://purl.org/dc/elements/1.1/" xmlns:cc="http://creativecommons.org/ns#" xmlns:rdf="http://www.w3.org/1999/02/22-rdf-syntax-ns#">
   <cc:Work>
    <dc:type rdf:resource="http://purl.org/dc/dcmitype/StillImage"/>
    <dc:date>2023-03-15T16:59:33.888154</dc:date>
    <dc:format>image/svg+xml</dc:format>
    <dc:creator>
     <cc:Agent>
      <dc:title>Matplotlib v3.7.1, https://matplotlib.org/</dc:title>
     </cc:Agent>
    </dc:creator>
   </cc:Work>
  </rdf:RDF>
 </metadata>
 <defs>
  <style type="text/css">*{stroke-linejoin: round; stroke-linecap: butt}</style>
 </defs>
 <g id="figure_1">
  <g id="patch_1">
   <path d="M 0 328.728176 
L 407.883072 328.728176 
L 407.883072 0 
L 0 0 
z
" style="fill: #ffffff"/>
  </g>
  <g id="axes_1">
   <g id="patch_2">
    <path d="M 36.008158 289.274625 
L 393.128158 289.274625 
L 393.128158 23.162625 
L 36.008158 23.162625 
z
" style="fill: #ffffff"/>
   </g>
   <g id="matplotlib.axis_1">
    <g id="xtick_1">
     <g id="line2d_1">
      <path d="M 36.008158 289.274625 
L 36.008158 23.162625 
" clip-path="url(#p49976e8206)" style="fill: none; stroke: #b0b0b0; stroke-width: 0.8; stroke-linecap: square"/>
     </g>
     <g id="line2d_2">
      <defs>
       <path id="m47e3ce4d09" d="M 0 0 
L 0 3.5 
" style="stroke: #000000; stroke-width: 0.8"/>
      </defs>
      <g>
       <use xlink:href="#m47e3ce4d09" x="36.008158" y="289.274625" style="stroke: #000000; stroke-width: 0.8"/>
      </g>
     </g>
     <g id="text_1">
      <!-- 10k -->
      <g transform="translate(27.315164 304.576805) scale(0.12 -0.12)">
       <defs>
        <path id="CMSS17-31" d="M 1818 4288 
L 1696 4288 
C 1350 3940 947 3890 538 3890 
L 538 3520 
C 723 3520 1024 3520 1325 3667 
L 1325 369 
L 570 369 
L 570 0 
L 2573 0 
L 2573 369 
L 1818 369 
L 1818 4288 
z
" transform="scale(0.015625)"/>
        <path id="CMSS17-30" d="M 2758 2044 
C 2758 2405 2752 3077 2490 3596 
C 2227 4096 1805 4229 1504 4229 
C 1069 4229 698 3975 506 3570 
C 301 3146 243 2709 243 2044 
C 243 1589 262 1031 493 543 
C 755 5 1197 -128 1498 -128 
C 1894 -128 2278 81 2496 518 
C 2720 974 2758 1474 2758 2044 
z
M 1498 261 
C 1011 261 864 811 819 995 
C 742 1310 730 1614 730 2114 
C 730 2506 730 2948 851 3297 
C 998 3701 1254 3840 1498 3840 
C 1971 3840 2125 3372 2176 3208 
C 2272 2873 2272 2481 2272 2114 
C 2272 1526 2272 261 1498 261 
z
" transform="scale(0.015625)"/>
        <path id="CMSS17-6b" d="M 1696 1688 
L 2688 2739 
L 2074 2739 
L 954 1554 
L 954 4416 
L 480 4416 
L 480 0 
L 947 0 
L 947 892 
L 1376 1344 
L 2278 0 
L 2822 0 
L 1696 1688 
z
" transform="scale(0.015625)"/>
       </defs>
       <use xlink:href="#CMSS17-31" transform="scale(0.996264)"/>
       <use xlink:href="#CMSS17-30" transform="translate(46.843624 0) scale(0.996264)"/>
       <use xlink:href="#CMSS17-6b" transform="translate(93.687247 0) scale(0.996264)"/>
      </g>
     </g>
    </g>
    <g id="xtick_2">
     <g id="line2d_3">
      <path d="M 214.568158 289.274625 
L 214.568158 23.162625 
" clip-path="url(#p49976e8206)" style="fill: none; stroke: #b0b0b0; stroke-width: 0.8; stroke-linecap: square"/>
     </g>
     <g id="line2d_4">
      <g>
       <use xlink:href="#m47e3ce4d09" x="214.568158" y="289.274625" style="stroke: #000000; stroke-width: 0.8"/>
      </g>
     </g>
     <g id="text_2">
      <!-- 100k -->
      <g transform="translate(202.948668 304.576805) scale(0.12 -0.12)">
       <use xlink:href="#CMSS17-31" transform="scale(0.996264)"/>
       <use xlink:href="#CMSS17-30" transform="translate(46.843624 0) scale(0.996264)"/>
       <use xlink:href="#CMSS17-30" transform="translate(93.687247 0) scale(0.996264)"/>
       <use xlink:href="#CMSS17-6b" transform="translate(140.530871 0) scale(0.996264)"/>
      </g>
     </g>
    </g>
    <g id="xtick_3">
     <g id="line2d_5">
      <path d="M 339.376242 289.274625 
L 339.376242 23.162625 
" clip-path="url(#p49976e8206)" style="fill: none; stroke: #b0b0b0; stroke-width: 0.8; stroke-linecap: square"/>
     </g>
     <g id="line2d_6">
      <g>
       <use xlink:href="#m47e3ce4d09" x="339.376242" y="289.274625" style="stroke: #000000; stroke-width: 0.8"/>
      </g>
     </g>
     <g id="text_3">
      <!-- 500k -->
      <g transform="translate(327.756752 304.576805) scale(0.12 -0.12)">
       <defs>
        <path id="CMSS17-35" d="M 934 3752 
L 2502 3752 
L 2502 4160 
L 467 4160 
L 467 1781 
L 896 1781 
C 1011 2046 1248 2240 1555 2240 
C 1843 2240 2163 1989 2163 1266 
C 2163 493 1709 267 1376 267 
C 966 267 589 512 422 851 
L 218 499 
C 512 49 992 -128 1376 -128 
C 2118 -128 2701 497 2701 1253 
C 2701 2030 2182 2629 1562 2629 
C 1338 2629 1120 2553 934 2399 
L 934 3752 
z
" transform="scale(0.015625)"/>
       </defs>
       <use xlink:href="#CMSS17-35" transform="scale(0.996264)"/>
       <use xlink:href="#CMSS17-30" transform="translate(46.843624 0) scale(0.996264)"/>
       <use xlink:href="#CMSS17-30" transform="translate(93.687247 0) scale(0.996264)"/>
       <use xlink:href="#CMSS17-6b" transform="translate(140.530871 0) scale(0.996264)"/>
      </g>
     </g>
    </g>
    <g id="xtick_4">
     <g id="line2d_7">
      <path d="M 393.128158 289.274625 
L 393.128158 23.162625 
" clip-path="url(#p49976e8206)" style="fill: none; stroke: #b0b0b0; stroke-width: 0.8; stroke-linecap: square"/>
     </g>
     <g id="line2d_8">
      <g>
       <use xlink:href="#m47e3ce4d09" x="393.128158" y="289.274625" style="stroke: #000000; stroke-width: 0.8"/>
      </g>
     </g>
     <g id="text_4">
      <!-- 1m -->
      <g transform="translate(385.573245 304.576805) scale(0.12 -0.12)">
       <defs>
        <path id="CMSS17-6d" d="M 4288 1877 
C 4288 2308 4179 2816 3462 2816 
C 2982 2816 2694 2516 2566 2331 
C 2451 2670 2182 2816 1798 2816 
C 1363 2816 1088 2568 941 2389 
L 941 2758 
L 474 2758 
L 474 0 
L 960 0 
L 960 1559 
C 960 1939 1101 2428 1555 2428 
C 2138 2428 2138 2016 2138 1829 
L 2138 0 
L 2624 0 
L 2624 1559 
C 2624 1939 2765 2428 3219 2428 
C 3802 2428 3802 2016 3802 1829 
L 3802 0 
L 4288 0 
L 4288 1877 
z
" transform="scale(0.015625)"/>
       </defs>
       <use xlink:href="#CMSS17-31" transform="scale(0.996264)"/>
       <use xlink:href="#CMSS17-6d" transform="translate(46.843624 0) scale(0.996264)"/>
      </g>
     </g>
    </g>
    <g id="xtick_5">
     <g id="line2d_9">
      <defs>
       <path id="m9772bd393f" d="M 0 0 
L 0 2 
" style="stroke: #000000; stroke-width: 0.6"/>
      </defs>
      <g>
       <use xlink:href="#m9772bd393f" x="89.760074" y="289.274625" style="stroke: #000000; stroke-width: 0.6"/>
      </g>
     </g>
    </g>
    <g id="xtick_6">
     <g id="line2d_10">
      <g>
       <use xlink:href="#m9772bd393f" x="121.20293" y="289.274625" style="stroke: #000000; stroke-width: 0.6"/>
      </g>
     </g>
    </g>
    <g id="xtick_7">
     <g id="line2d_11">
      <g>
       <use xlink:href="#m9772bd393f" x="143.51199" y="289.274625" style="stroke: #000000; stroke-width: 0.6"/>
      </g>
     </g>
    </g>
    <g id="xtick_8">
     <g id="line2d_12">
      <g>
       <use xlink:href="#m9772bd393f" x="160.816242" y="289.274625" style="stroke: #000000; stroke-width: 0.6"/>
      </g>
     </g>
    </g>
    <g id="xtick_9">
     <g id="line2d_13">
      <g>
       <use xlink:href="#m9772bd393f" x="174.954846" y="289.274625" style="stroke: #000000; stroke-width: 0.6"/>
      </g>
     </g>
    </g>
    <g id="xtick_10">
     <g id="line2d_14">
      <g>
       <use xlink:href="#m9772bd393f" x="186.908864" y="289.274625" style="stroke: #000000; stroke-width: 0.6"/>
      </g>
     </g>
    </g>
    <g id="xtick_11">
     <g id="line2d_15">
      <g>
       <use xlink:href="#m9772bd393f" x="197.263906" y="289.274625" style="stroke: #000000; stroke-width: 0.6"/>
      </g>
     </g>
    </g>
    <g id="xtick_12">
     <g id="line2d_16">
      <g>
       <use xlink:href="#m9772bd393f" x="206.397701" y="289.274625" style="stroke: #000000; stroke-width: 0.6"/>
      </g>
     </g>
    </g>
    <g id="xtick_13">
     <g id="line2d_17">
      <g>
       <use xlink:href="#m9772bd393f" x="268.320074" y="289.274625" style="stroke: #000000; stroke-width: 0.6"/>
      </g>
     </g>
    </g>
    <g id="xtick_14">
     <g id="line2d_18">
      <g>
       <use xlink:href="#m9772bd393f" x="299.76293" y="289.274625" style="stroke: #000000; stroke-width: 0.6"/>
      </g>
     </g>
    </g>
    <g id="xtick_15">
     <g id="line2d_19">
      <g>
       <use xlink:href="#m9772bd393f" x="322.07199" y="289.274625" style="stroke: #000000; stroke-width: 0.6"/>
      </g>
     </g>
    </g>
    <g id="xtick_16">
     <g id="line2d_20">
      <g>
       <use xlink:href="#m9772bd393f" x="353.514846" y="289.274625" style="stroke: #000000; stroke-width: 0.6"/>
      </g>
     </g>
    </g>
    <g id="xtick_17">
     <g id="line2d_21">
      <g>
       <use xlink:href="#m9772bd393f" x="365.468864" y="289.274625" style="stroke: #000000; stroke-width: 0.6"/>
      </g>
     </g>
    </g>
    <g id="xtick_18">
     <g id="line2d_22">
      <g>
       <use xlink:href="#m9772bd393f" x="375.823906" y="289.274625" style="stroke: #000000; stroke-width: 0.6"/>
      </g>
     </g>
    </g>
    <g id="xtick_19">
     <g id="line2d_23">
      <g>
       <use xlink:href="#m9772bd393f" x="384.957701" y="289.274625" style="stroke: #000000; stroke-width: 0.6"/>
      </g>
     </g>
    </g>
    <g id="text_5">
     <!-- Source instance size -->
     <g transform="translate(165.78915 319.20358) scale(0.12 -0.12)">
      <defs>
       <path id="CMSS17-53" d="M 2797 4169 
C 2515 4334 2208 4480 1690 4480 
C 864 4480 333 3879 333 3266 
C 333 3025 403 2753 653 2475 
C 902 2196 1184 2121 1542 2033 
C 1690 1994 1939 1924 1984 1906 
C 2342 1767 2515 1444 2515 1140 
C 2515 742 2202 318 1645 318 
C 1453 318 890 318 358 819 
L 269 318 
C 794 -64 1363 -128 1651 -128 
C 2438 -128 3002 488 3002 1186 
C 3002 1440 2925 1763 2656 2061 
C 2394 2347 2163 2410 1638 2549 
C 1338 2626 1146 2677 986 2873 
C 877 3013 819 3146 819 3317 
C 819 3673 1126 4060 1690 4060 
C 1971 4060 2336 4002 2707 3660 
L 2797 4169 
z
" transform="scale(0.015625)"/>
       <path id="CMSS17-6f" d="M 2829 1356 
C 2829 2176 2221 2816 1504 2816 
C 768 2816 173 2157 173 1356 
C 173 544 787 -64 1498 -64 
C 2227 -64 2829 563 2829 1356 
z
M 1504 337 
C 1050 337 659 709 659 1408 
C 659 2151 1114 2427 1498 2427 
C 1914 2427 2342 2126 2342 1408 
C 2342 683 1926 337 1504 337 
z
" transform="scale(0.015625)"/>
       <path id="CMSS17-75" d="M 2618 2739 
L 2131 2739 
L 2131 972 
C 2131 498 1786 306 1421 306 
C 998 306 960 447 960 709 
L 960 2739 
L 474 2739 
L 474 678 
C 474 179 646 -64 1088 -64 
C 1306 -64 1798 -13 2144 306 
L 2144 0 
L 2618 0 
L 2618 2739 
z
" transform="scale(0.015625)"/>
       <path id="CMSS17-72" d="M 954 1363 
C 954 1965 1395 2368 1958 2368 
L 1958 2789 
C 1549 2789 1165 2585 934 2253 
L 934 2758 
L 480 2758 
L 480 0 
L 954 0 
L 954 1363 
z
" transform="scale(0.015625)"/>
       <path id="CMSS17-63" d="M 2464 2541 
C 2464 2585 2170 2714 2093 2739 
C 1882 2816 1613 2816 1542 2816 
C 710 2816 211 2093 211 1363 
C 211 595 768 -64 1517 -64 
C 1946 -64 2253 76 2502 242 
L 2464 664 
C 2189 453 1869 337 1523 337 
C 1024 337 698 774 698 1369 
C 698 1831 909 2414 1549 2414 
C 1901 2414 2099 2343 2394 2145 
L 2464 2541 
z
" transform="scale(0.015625)"/>
       <path id="CMSS17-65" d="M 2502 1377 
C 2502 1590 2490 2003 2285 2345 
C 2061 2713 1696 2816 1421 2816 
C 755 2816 192 2188 192 1375 
C 192 582 774 -64 1510 -64 
C 1798 -64 2150 19 2470 248 
C 2470 274 2458 414 2451 420 
C 2451 433 2432 630 2432 656 
C 2125 407 1773 325 1517 325 
C 1107 325 666 667 646 1377 
L 2502 1377 
z
M 698 1728 
C 781 2084 1062 2421 1421 2421 
C 1517 2421 1965 2421 2080 1728 
L 698 1728 
z
" transform="scale(0.015625)"/>
       <path id="CMSS17-69" d="M 979 4183 
L 442 4183 
L 442 3648 
L 979 3648 
L 979 4183 
z
M 947 2739 
L 474 2739 
L 474 0 
L 947 0 
L 947 2739 
z
" transform="scale(0.015625)"/>
       <path id="CMSS17-6e" d="M 2618 1877 
C 2618 2283 2522 2816 1798 2816 
C 1389 2816 1120 2606 941 2389 
L 941 2758 
L 474 2758 
L 474 0 
L 960 0 
L 960 1559 
C 960 1964 1114 2428 1549 2428 
C 2112 2428 2131 2048 2131 1829 
L 2131 0 
L 2618 0 
L 2618 1877 
z
" transform="scale(0.015625)"/>
       <path id="CMSS17-73" d="M 2061 2627 
C 1683 2807 1389 2807 1197 2807 
C 742 2807 198 2648 198 2003 
C 198 1359 902 1218 1094 1179 
C 1389 1122 1715 1058 1715 740 
C 1715 337 1254 337 1171 337 
C 915 337 563 407 243 638 
L 166 210 
C 531 0 883 -64 1178 -64 
C 1965 -64 2163 416 2163 781 
C 2163 1094 1984 1305 1862 1401 
C 1651 1568 1574 1587 1050 1696 
C 960 1709 646 1779 646 2066 
C 646 2432 1050 2432 1139 2432 
C 1555 2432 1811 2303 1984 2208 
L 2061 2627 
z
" transform="scale(0.015625)"/>
       <path id="CMSS17-74" d="M 1069 2368 
L 1901 2368 
L 1901 2737 
L 1069 2737 
L 1069 3520 
L 614 3520 
L 614 2737 
L 109 2737 
L 109 2368 
L 602 2368 
L 602 749 
C 602 384 685 -64 1107 -64 
C 1427 -64 1722 25 2003 172 
L 1901 548 
C 1747 414 1562 337 1363 337 
C 1082 337 1069 696 1069 856 
L 1069 2368 
z
" transform="scale(0.015625)"/>
       <path id="CMSS17-61" d="M 2406 1791 
C 2406 2392 1978 2808 1402 2808 
C 1120 2808 813 2757 461 2553 
L 499 2135 
C 659 2248 934 2432 1395 2432 
C 1722 2432 1920 2180 1920 1782 
L 1920 1536 
C 896 1536 256 1238 256 726 
C 256 461 416 -64 947 -64 
C 1043 -64 1562 -64 1933 217 
L 1933 -19 
L 2406 -19 
L 2406 1791 
z
M 1920 816 
C 1920 701 1920 548 1728 434 
C 1562 325 1350 325 1261 325 
C 941 325 723 511 723 744 
C 723 1211 1722 1211 1920 1211 
L 1920 816 
z
" transform="scale(0.015625)"/>
       <path id="CMSS17-7a" d="M 2400 2502 
L 2400 2750 
L 250 2750 
L 250 2368 
L 1069 2368 
C 1146 2368 1222 2368 1299 2368 
L 1747 2368 
L 166 261 
L 166 0 
L 2419 0 
L 2419 395 
L 1549 395 
C 1472 395 1395 395 1318 395 
L 826 395 
L 2400 2502 
z
" transform="scale(0.015625)"/>
      </defs>
      <use xlink:href="#CMSS17-53" transform="scale(0.996264)"/>
      <use xlink:href="#CMSS17-6f" transform="translate(52.048516 0) scale(0.996264)"/>
      <use xlink:href="#CMSS17-75" transform="translate(98.89214 0) scale(0.996264)"/>
      <use xlink:href="#CMSS17-72" transform="translate(147.097083 0) scale(0.996264)"/>
      <use xlink:href="#CMSS17-63" transform="translate(179.006855 0) scale(0.996264)"/>
      <use xlink:href="#CMSS17-65" transform="translate(220.645677 0) scale(0.996264)"/>
      <use xlink:href="#CMSS17-69" transform="translate(293.513612 0) scale(0.996264)"/>
      <use xlink:href="#CMSS17-6e" transform="translate(315.694335 0) scale(0.996264)"/>
      <use xlink:href="#CMSS17-73" transform="translate(363.899278 0) scale(0.996264)"/>
      <use xlink:href="#CMSS17-74" transform="translate(399.81282 0) scale(0.996264)"/>
      <use xlink:href="#CMSS17-61" transform="translate(433.644387 0) scale(0.996264)"/>
      <use xlink:href="#CMSS17-6e" transform="translate(478.566308 0) scale(0.996264)"/>
      <use xlink:href="#CMSS17-63" transform="translate(526.771251 0) scale(0.996264)"/>
      <use xlink:href="#CMSS17-65" transform="translate(568.410073 0) scale(0.996264)"/>
      <use xlink:href="#CMSS17-73" transform="translate(641.278008 0) scale(0.996264)"/>
      <use xlink:href="#CMSS17-69" transform="translate(677.19155 0) scale(0.996264)"/>
      <use xlink:href="#CMSS17-7a" transform="translate(699.372273 0) scale(0.996264)"/>
      <use xlink:href="#CMSS17-65" transform="translate(740.050145 0) scale(0.996264)"/>
     </g>
    </g>
   </g>
   <g id="matplotlib.axis_2">
    <g id="ytick_1">
     <g id="line2d_24">
      <path d="M 36.008158 260.521164 
L 393.128158 260.521164 
" clip-path="url(#p49976e8206)" style="fill: none; stroke: #b0b0b0; stroke-width: 0.8; stroke-linecap: square"/>
     </g>
     <g id="line2d_25">
      <defs>
       <path id="m12cff73fc5" d="M 0 0 
L -3.5 0 
" style="stroke: #000000; stroke-width: 0.8"/>
      </defs>
      <g>
       <use xlink:href="#m12cff73fc5" x="36.008158" y="260.521164" style="stroke: #000000; stroke-width: 0.8"/>
      </g>
     </g>
     <g id="text_6">
      <!-- $\mathdefault{1}$ -->
      <g transform="translate(23.155168 264.672254) scale(0.12 -0.12)">
       <defs>
        <path id="CMR17-31" d="M 1702 4058 
C 1702 4192 1696 4192 1606 4192 
C 1357 3916 979 3827 621 3827 
C 602 3827 570 3827 563 3808 
C 557 3795 557 3782 557 3648 
C 755 3648 1088 3686 1344 3839 
L 1344 461 
C 1344 236 1331 160 781 160 
L 589 160 
L 589 0 
C 896 0 1216 0 1523 0 
C 1830 0 2150 0 2458 0 
L 2458 160 
L 2266 160 
C 1715 160 1702 230 1702 458 
L 1702 4058 
z
" transform="scale(0.015625)"/>
       </defs>
       <use xlink:href="#CMR17-31" transform="scale(0.996264)"/>
      </g>
     </g>
    </g>
    <g id="ytick_2">
     <g id="line2d_26">
      <path d="M 36.008158 228.767359 
L 393.128158 228.767359 
" clip-path="url(#p49976e8206)" style="fill: none; stroke: #b0b0b0; stroke-width: 0.8; stroke-linecap: square"/>
     </g>
     <g id="line2d_27">
      <g>
       <use xlink:href="#m12cff73fc5" x="36.008158" y="228.767359" style="stroke: #000000; stroke-width: 0.8"/>
      </g>
     </g>
     <g id="text_7">
      <!-- $\mathdefault{2}$ -->
      <g transform="translate(23.155168 232.918449) scale(0.12 -0.12)">
       <defs>
        <path id="CMR17-32" d="M 2669 989 
L 2554 989 
C 2490 536 2438 459 2413 420 
C 2381 369 1920 369 1830 369 
L 602 369 
C 832 619 1280 1072 1824 1597 
C 2214 1967 2669 2402 2669 3035 
C 2669 3790 2067 4224 1395 4224 
C 691 4224 262 3604 262 3030 
C 262 2780 448 2748 525 2748 
C 589 2748 781 2787 781 3010 
C 781 3207 614 3264 525 3264 
C 486 3264 448 3258 422 3245 
C 544 3790 915 4058 1306 4058 
C 1862 4058 2227 3617 2227 3035 
C 2227 2479 1901 2000 1536 1584 
L 262 146 
L 262 0 
L 2515 0 
L 2669 989 
z
" transform="scale(0.015625)"/>
       </defs>
       <use xlink:href="#CMR17-32" transform="scale(0.996264)"/>
      </g>
     </g>
    </g>
    <g id="ytick_3">
     <g id="line2d_28">
      <path d="M 36.008158 197.013554 
L 393.128158 197.013554 
" clip-path="url(#p49976e8206)" style="fill: none; stroke: #b0b0b0; stroke-width: 0.8; stroke-linecap: square"/>
     </g>
     <g id="line2d_29">
      <g>
       <use xlink:href="#m12cff73fc5" x="36.008158" y="197.013554" style="stroke: #000000; stroke-width: 0.8"/>
      </g>
     </g>
     <g id="text_8">
      <!-- $\mathdefault{3}$ -->
      <g transform="translate(23.155168 201.164644) scale(0.12 -0.12)">
       <defs>
        <path id="CMR17-33" d="M 1414 2157 
C 1984 2157 2234 1662 2234 1090 
C 2234 320 1824 25 1453 25 
C 1114 25 563 194 390 693 
C 422 680 454 680 486 680 
C 640 680 755 782 755 948 
C 755 1133 614 1216 486 1216 
C 378 1216 211 1165 211 926 
C 211 335 787 -128 1466 -128 
C 2176 -128 2720 430 2720 1085 
C 2720 1707 2208 2157 1600 2227 
C 2086 2328 2554 2756 2554 3329 
C 2554 3820 2048 4179 1472 4179 
C 890 4179 378 3829 378 3329 
C 378 3110 544 3072 627 3072 
C 762 3072 877 3155 877 3321 
C 877 3486 762 3569 627 3569 
C 602 3569 570 3569 544 3557 
C 730 3959 1235 4032 1459 4032 
C 1683 4032 2106 3925 2106 3320 
C 2106 3143 2080 2828 1862 2550 
C 1670 2304 1453 2304 1242 2284 
C 1210 2284 1062 2269 1037 2269 
C 992 2263 966 2257 966 2208 
C 966 2163 973 2157 1101 2157 
L 1414 2157 
z
" transform="scale(0.015625)"/>
       </defs>
       <use xlink:href="#CMR17-33" transform="scale(0.996264)"/>
      </g>
     </g>
    </g>
    <g id="ytick_4">
     <g id="line2d_30">
      <path d="M 36.008158 165.259748 
L 393.128158 165.259748 
" clip-path="url(#p49976e8206)" style="fill: none; stroke: #b0b0b0; stroke-width: 0.8; stroke-linecap: square"/>
     </g>
     <g id="line2d_31">
      <g>
       <use xlink:href="#m12cff73fc5" x="36.008158" y="165.259748" style="stroke: #000000; stroke-width: 0.8"/>
      </g>
     </g>
     <g id="text_9">
      <!-- $\mathdefault{4}$ -->
      <g transform="translate(23.155168 169.410838) scale(0.12 -0.12)">
       <defs>
        <path id="CMR17-34" d="M 2150 4122 
C 2150 4256 2144 4256 2029 4256 
L 128 1254 
L 128 1088 
L 1779 1088 
L 1779 457 
C 1779 224 1766 160 1318 160 
L 1197 160 
L 1197 0 
C 1402 0 1747 0 1965 0 
C 2182 0 2528 0 2733 0 
L 2733 160 
L 2611 160 
C 2163 160 2150 224 2150 457 
L 2150 1088 
L 2803 1088 
L 2803 1254 
L 2150 1254 
L 2150 4122 
z
M 1798 3703 
L 1798 1254 
L 256 1254 
L 1798 3703 
z
" transform="scale(0.015625)"/>
       </defs>
       <use xlink:href="#CMR17-34" transform="scale(0.996264)"/>
      </g>
     </g>
    </g>
    <g id="ytick_5">
     <g id="line2d_32">
      <path d="M 36.008158 133.505943 
L 393.128158 133.505943 
" clip-path="url(#p49976e8206)" style="fill: none; stroke: #b0b0b0; stroke-width: 0.8; stroke-linecap: square"/>
     </g>
     <g id="line2d_33">
      <g>
       <use xlink:href="#m12cff73fc5" x="36.008158" y="133.505943" style="stroke: #000000; stroke-width: 0.8"/>
      </g>
     </g>
     <g id="text_10">
      <!-- $\mathdefault{5}$ -->
      <g transform="translate(23.155168 137.657033) scale(0.12 -0.12)">
       <defs>
        <path id="CMR17-35" d="M 730 3692 
C 794 3666 1056 3584 1325 3584 
C 1920 3584 2246 3911 2432 4100 
C 2432 4157 2432 4192 2394 4192 
C 2387 4192 2374 4192 2323 4163 
C 2099 4058 1837 3973 1517 3973 
C 1325 3973 1037 3999 723 4139 
C 653 4171 640 4171 634 4171 
C 602 4171 595 4164 595 4037 
L 595 2203 
C 595 2089 595 2057 659 2057 
C 691 2057 704 2070 736 2114 
C 941 2401 1222 2522 1542 2522 
C 1766 2522 2246 2382 2246 1289 
C 2246 1085 2246 715 2054 421 
C 1894 159 1645 25 1370 25 
C 947 25 518 320 403 814 
C 429 807 480 795 506 795 
C 589 795 749 840 749 1038 
C 749 1210 627 1280 506 1280 
C 358 1280 262 1190 262 1011 
C 262 454 704 -128 1382 -128 
C 2042 -128 2669 440 2669 1264 
C 2669 2030 2170 2624 1549 2624 
C 1222 2624 947 2503 730 2274 
L 730 3692 
z
" transform="scale(0.015625)"/>
       </defs>
       <use xlink:href="#CMR17-35" transform="scale(0.996264)"/>
      </g>
     </g>
    </g>
    <g id="ytick_6">
     <g id="line2d_34">
      <path d="M 36.008158 101.752138 
L 393.128158 101.752138 
" clip-path="url(#p49976e8206)" style="fill: none; stroke: #b0b0b0; stroke-width: 0.8; stroke-linecap: square"/>
     </g>
     <g id="line2d_35">
      <g>
       <use xlink:href="#m12cff73fc5" x="36.008158" y="101.752138" style="stroke: #000000; stroke-width: 0.8"/>
      </g>
     </g>
     <g id="text_11">
      <!-- $\mathdefault{6}$ -->
      <g transform="translate(23.155168 105.903228) scale(0.12 -0.12)">
       <defs>
        <path id="CMR17-36" d="M 678 2176 
C 678 3690 1395 4032 1811 4032 
C 1946 4032 2272 4009 2400 3776 
C 2298 3776 2106 3776 2106 3553 
C 2106 3381 2246 3323 2336 3323 
C 2394 3323 2566 3348 2566 3560 
C 2566 3954 2246 4179 1805 4179 
C 1043 4179 243 3390 243 1984 
C 243 253 966 -128 1478 -128 
C 2099 -128 2688 427 2688 1283 
C 2688 2081 2170 2662 1517 2662 
C 1126 2662 838 2407 678 1960 
L 678 2176 
z
M 1478 25 
C 691 25 691 1200 691 1436 
C 691 1896 909 2560 1504 2560 
C 1613 2560 1926 2560 2138 2120 
C 2253 1870 2253 1609 2253 1289 
C 2253 944 2253 690 2118 434 
C 1978 171 1773 25 1478 25 
z
" transform="scale(0.015625)"/>
       </defs>
       <use xlink:href="#CMR17-36" transform="scale(0.996264)"/>
      </g>
     </g>
    </g>
    <g id="ytick_7">
     <g id="line2d_36">
      <path d="M 36.008158 69.998332 
L 393.128158 69.998332 
" clip-path="url(#p49976e8206)" style="fill: none; stroke: #b0b0b0; stroke-width: 0.8; stroke-linecap: square"/>
     </g>
     <g id="line2d_37">
      <g>
       <use xlink:href="#m12cff73fc5" x="36.008158" y="69.998332" style="stroke: #000000; stroke-width: 0.8"/>
      </g>
     </g>
     <g id="text_12">
      <!-- $\mathdefault{7}$ -->
      <g transform="translate(23.155168 74.149422) scale(0.12 -0.12)">
       <defs>
        <path id="CMR17-37" d="M 2886 3941 
L 2886 4081 
L 1382 4081 
C 634 4081 621 4165 595 4288 
L 480 4288 
L 294 3094 
L 410 3094 
C 429 3215 474 3540 550 3661 
C 589 3712 1062 3712 1171 3712 
L 2579 3712 
L 1869 2661 
C 1395 1954 1069 999 1069 165 
C 1069 89 1069 -128 1299 -128 
C 1530 -128 1530 89 1530 171 
L 1530 465 
C 1530 1508 1709 2196 2003 2636 
L 2886 3941 
z
" transform="scale(0.015625)"/>
       </defs>
       <use xlink:href="#CMR17-37" transform="scale(0.996264)"/>
      </g>
     </g>
    </g>
    <g id="ytick_8">
     <g id="line2d_38">
      <path d="M 36.008158 38.244527 
L 393.128158 38.244527 
" clip-path="url(#p49976e8206)" style="fill: none; stroke: #b0b0b0; stroke-width: 0.8; stroke-linecap: square"/>
     </g>
     <g id="line2d_39">
      <g>
       <use xlink:href="#m12cff73fc5" x="36.008158" y="38.244527" style="stroke: #000000; stroke-width: 0.8"/>
      </g>
     </g>
     <g id="text_13">
      <!-- $\mathdefault{8}$ -->
      <g transform="translate(23.155168 42.395617) scale(0.12 -0.12)">
       <defs>
        <path id="CMR17-38" d="M 1741 2264 
C 2144 2467 2554 2773 2554 3263 
C 2554 3841 1990 4179 1472 4179 
C 890 4179 378 3759 378 3180 
C 378 3021 416 2747 666 2505 
C 730 2442 998 2251 1171 2130 
C 883 1983 211 1634 211 934 
C 211 279 838 -128 1459 -128 
C 2144 -128 2720 362 2720 1010 
C 2720 1590 2330 1857 2074 2029 
L 1741 2264 
z
M 902 2822 
C 851 2854 595 3051 595 3351 
C 595 3739 998 4032 1459 4032 
C 1965 4032 2336 3676 2336 3262 
C 2336 2669 1670 2331 1638 2331 
C 1632 2331 1626 2331 1574 2370 
L 902 2822 
z
M 2080 1519 
C 2176 1449 2483 1240 2483 851 
C 2483 381 2010 25 1472 25 
C 890 25 448 438 448 940 
C 448 1443 838 1862 1280 2060 
L 2080 1519 
z
" transform="scale(0.015625)"/>
       </defs>
       <use xlink:href="#CMR17-38" transform="scale(0.996264)"/>
      </g>
     </g>
    </g>
    <g id="text_14">
     <!-- Time (seconds) -->
     <g transform="translate(16.166376 193.942) rotate(-90) scale(0.12 -0.12)">
      <defs>
       <path id="CMSS17-54" d="M 2317 3968 
L 2848 3968 
C 2925 3968 3002 3968 3078 3968 
L 3878 3968 
L 3878 4376 
L 218 4376 
L 218 3968 
L 1018 3968 
C 1094 3968 1171 3968 1248 3968 
L 1779 3968 
L 1779 -32 
L 2317 -32 
L 2317 3968 
z
" transform="scale(0.015625)"/>
       <path id="CMSS17-28" d="M 1613 4768 
C 1267 4417 474 3601 474 1588 
C 474 -433 1267 -1243 1613 -1600 
L 2003 -1600 
C 1216 -784 960 357 960 1581 
C 960 2798 1203 3946 2003 4768 
L 1613 4768 
z
" transform="scale(0.015625)"/>
       <path id="CMSS17-64" d="M 2611 4416 
L 2138 4416 
L 2138 2438 
C 1939 2603 1613 2756 1254 2756 
C 672 2756 211 2131 211 1347 
C 211 562 666 -64 1235 -64 
C 1677 -64 1971 172 2125 306 
L 2125 -13 
L 2611 -13 
L 2611 4416 
z
M 2125 836 
C 2125 747 2125 653 1926 482 
C 1798 375 1645 325 1498 325 
C 1152 325 698 576 698 1340 
C 698 2134 1210 2368 1562 2368 
C 1798 2368 1990 2254 2125 2065 
L 2125 836 
z
" transform="scale(0.015625)"/>
       <path id="CMSS17-29" d="M 723 -1600 
C 1069 -1249 1862 -433 1862 1581 
C 1862 3601 1069 4411 723 4768 
L 333 4768 
C 1120 3952 1376 2811 1376 1588 
C 1376 370 1133 -778 333 -1600 
L 723 -1600 
z
" transform="scale(0.015625)"/>
      </defs>
      <use xlink:href="#CMSS17-54" transform="scale(0.996264)"/>
      <use xlink:href="#CMSS17-69" transform="translate(63.819454 0) scale(0.996264)"/>
      <use xlink:href="#CMSS17-6d" transform="translate(86.000177 0) scale(0.996264)"/>
      <use xlink:href="#CMSS17-65" transform="translate(160.229431 0) scale(0.996264)"/>
      <use xlink:href="#CMSS17-28" transform="translate(233.097366 0) scale(0.996264)"/>
      <use xlink:href="#CMSS17-73" transform="translate(269.53128 0) scale(0.996264)"/>
      <use xlink:href="#CMSS17-65" transform="translate(305.444822 0) scale(0.996264)"/>
      <use xlink:href="#CMSS17-63" transform="translate(347.083644 0) scale(0.996264)"/>
      <use xlink:href="#CMSS17-6f" transform="translate(388.722467 0) scale(0.996264)"/>
      <use xlink:href="#CMSS17-6e" transform="translate(435.56609 0) scale(0.996264)"/>
      <use xlink:href="#CMSS17-64" transform="translate(483.771033 0) scale(0.996264)"/>
      <use xlink:href="#CMSS17-73" transform="translate(531.975976 0) scale(0.996264)"/>
      <use xlink:href="#CMSS17-29" transform="translate(567.889518 0) scale(0.996264)"/>
     </g>
    </g>
   </g>
   <g id="line2d_40">
    <path d="M 36.008158 277.178625 
L 214.568158 198.414334 
L 339.376242 87.732579 
L 393.128158 84.398711 
" clip-path="url(#p49976e8206)" style="fill: none; stroke: #008000; stroke-width: 1.5; stroke-linecap: square"/>
    <defs>
     <path id="mafbb04e01b" d="M -2 4 
L 0 2 
L 2 4 
L 4 2 
L 2 0 
L 4 -2 
L 2 -4 
L 0 -2 
L -2 -4 
L -4 -2 
L -2 0 
L -4 2 
z
" style="stroke: #000000; stroke-opacity: 0.9; stroke-width: 0.2; stroke-linejoin: miter"/>
    </defs>
    <g clip-path="url(#p49976e8206)">
     <use xlink:href="#mafbb04e01b" x="36.008158" y="277.178625" style="fill: #008000; stroke: #000000; stroke-opacity: 0.9; stroke-width: 0.2; stroke-linejoin: miter"/>
     <use xlink:href="#mafbb04e01b" x="214.568158" y="198.414334" style="fill: #008000; stroke: #000000; stroke-opacity: 0.9; stroke-width: 0.2; stroke-linejoin: miter"/>
     <use xlink:href="#mafbb04e01b" x="339.376242" y="87.732579" style="fill: #008000; stroke: #000000; stroke-opacity: 0.9; stroke-width: 0.2; stroke-linejoin: miter"/>
     <use xlink:href="#mafbb04e01b" x="393.128158" y="84.398711" style="fill: #008000; stroke: #000000; stroke-opacity: 0.9; stroke-width: 0.2; stroke-linejoin: miter"/>
    </g>
   </g>
   <g id="line2d_41">
    <path d="M 36.008158 231.576837 
L 214.568158 153.316151 
L 339.376242 68.555863 
L 393.128158 70.475737 
" clip-path="url(#p49976e8206)" style="fill: none; stroke: #1e90ff; stroke-width: 1.5; stroke-linecap: square"/>
    <defs>
     <path id="m5c86316f6f" d="M 0 -4 
L -0.898056 -1.236068 
L -3.804226 -1.236068 
L -1.453085 0.472136 
L -2.351141 3.236068 
L -0 1.527864 
L 2.351141 3.236068 
L 1.453085 0.472136 
L 3.804226 -1.236068 
L 0.898056 -1.236068 
z
" style="stroke: #000000; stroke-opacity: 0.9; stroke-width: 0.2; stroke-linejoin: bevel"/>
    </defs>
    <g clip-path="url(#p49976e8206)">
     <use xlink:href="#m5c86316f6f" x="36.008158" y="231.576837" style="fill: #1e90ff; stroke: #000000; stroke-opacity: 0.9; stroke-width: 0.2; stroke-linejoin: bevel"/>
     <use xlink:href="#m5c86316f6f" x="214.568158" y="153.316151" style="fill: #1e90ff; stroke: #000000; stroke-opacity: 0.9; stroke-width: 0.2; stroke-linejoin: bevel"/>
     <use xlink:href="#m5c86316f6f" x="339.376242" y="68.555863" style="fill: #1e90ff; stroke: #000000; stroke-opacity: 0.9; stroke-width: 0.2; stroke-linejoin: bevel"/>
     <use xlink:href="#m5c86316f6f" x="393.128158" y="70.475737" style="fill: #1e90ff; stroke: #000000; stroke-opacity: 0.9; stroke-width: 0.2; stroke-linejoin: bevel"/>
    </g>
   </g>
   <g id="line2d_42">
    <path d="M 36.008158 226.804339 
L 214.568158 136.687921 
L 339.376242 35.905295 
L 393.128158 35.258625 
" clip-path="url(#p49976e8206)" style="fill: none; stroke: #ff8c00; stroke-width: 1.5; stroke-linecap: square"/>
    <defs>
     <path id="m94bb6fc2f8" d="M -0 5.656854 
L 5.656854 0 
L 0 -5.656854 
L -5.656854 -0 
z
" style="stroke: #000000; stroke-opacity: 0.9; stroke-width: 0.2; stroke-linejoin: miter"/>
    </defs>
    <g clip-path="url(#p49976e8206)">
     <use xlink:href="#m94bb6fc2f8" x="36.008158" y="226.804339" style="fill: #ff8c00; stroke: #000000; stroke-opacity: 0.9; stroke-width: 0.2; stroke-linejoin: miter"/>
     <use xlink:href="#m94bb6fc2f8" x="214.568158" y="136.687921" style="fill: #ff8c00; stroke: #000000; stroke-opacity: 0.9; stroke-width: 0.2; stroke-linejoin: miter"/>
     <use xlink:href="#m94bb6fc2f8" x="339.376242" y="35.905295" style="fill: #ff8c00; stroke: #000000; stroke-opacity: 0.9; stroke-width: 0.2; stroke-linejoin: miter"/>
     <use xlink:href="#m94bb6fc2f8" x="393.128158" y="35.258625" style="fill: #ff8c00; stroke: #000000; stroke-opacity: 0.9; stroke-width: 0.2; stroke-linejoin: miter"/>
    </g>
   </g>
   <g id="patch_3">
    <path d="M 36.008158 289.274625 
L 36.008158 23.162625 
" style="fill: none; stroke: #000000; stroke-width: 0.8; stroke-linejoin: miter; stroke-linecap: square"/>
   </g>
   <g id="patch_4">
    <path d="M 393.128158 289.274625 
L 393.128158 23.162625 
" style="fill: none; stroke: #000000; stroke-width: 0.8; stroke-linejoin: miter; stroke-linecap: square"/>
   </g>
   <g id="patch_5">
    <path d="M 36.008158 289.274625 
L 393.128158 289.274625 
" style="fill: none; stroke: #000000; stroke-width: 0.8; stroke-linejoin: miter; stroke-linecap: square"/>
   </g>
   <g id="patch_6">
    <path d="M 36.008158 23.162625 
L 393.128158 23.162625 
" style="fill: none; stroke: #000000; stroke-width: 0.8; stroke-linejoin: miter; stroke-linecap: square"/>
   </g>
   <g id="text_15">
    <!-- Doctors -->
    <g transform="translate(191.755664 17.162625) scale(0.144 -0.144)">
     <defs>
      <path id="CMSS17-44" d="M 570 4416 
L 570 0 
L 2144 0 
C 3194 0 4000 980 4000 2170 
C 4000 3398 3194 4416 2144 4416 
L 570 4416 
z
M 1094 357 
L 1094 4059 
L 2003 4059 
C 2861 4059 3475 3277 3475 2170 
C 3475 1107 2867 357 2003 357 
L 1094 357 
z
" transform="scale(0.015625)"/>
     </defs>
     <use xlink:href="#CMSS17-44" transform="scale(0.996264)"/>
     <use xlink:href="#CMSS17-6f" transform="translate(67.542842 0) scale(0.996264)"/>
     <use xlink:href="#CMSS17-63" transform="translate(116.988904 0) scale(0.996264)"/>
     <use xlink:href="#CMSS17-74" transform="translate(158.627726 0) scale(0.996264)"/>
     <use xlink:href="#CMSS17-6f" transform="translate(192.459293 0) scale(0.996264)"/>
     <use xlink:href="#CMSS17-72" transform="translate(236.700462 0) scale(0.996264)"/>
     <use xlink:href="#CMSS17-73" transform="translate(268.610235 0) scale(0.996264)"/>
    </g>
   </g>
   <g id="legend_1">
    <g id="patch_7">
     <path d="M 170.153988 82.936412 
L 258.982329 82.936412 
Q 261.382329 82.936412 261.382329 80.536412 
L 261.382329 31.562625 
Q 261.382329 29.162625 258.982329 29.162625 
L 170.153988 29.162625 
Q 167.753988 29.162625 167.753988 31.562625 
L 167.753988 80.536412 
Q 167.753988 82.936412 170.153988 82.936412 
z
" style="fill: #ffffff; opacity: 0.8; stroke: #cccccc; stroke-linejoin: miter"/>
    </g>
    <g id="line2d_43">
     <path d="M 172.553988 38.162625 
L 184.553988 38.162625 
L 196.553988 38.162625 
" style="fill: none; stroke: #008000; stroke-width: 1.5; stroke-linecap: square"/>
     <g>
      <use xlink:href="#mafbb04e01b" x="184.553988" y="38.162625" style="fill: #008000; stroke: #000000; stroke-opacity: 0.9; stroke-width: 0.2; stroke-linejoin: miter"/>
     </g>
    </g>
    <g id="text_16">
     <!-- DLV$^\exists$ -->
     <g transform="translate(206.153988 42.362625) scale(0.12 -0.12)">
      <defs>
       <path id="CMSS17-4c" d="M 1670 414 
C 1594 414 1517 414 1440 414 
L 1101 414 
L 1101 4416 
L 563 4416 
L 563 0 
L 3002 0 
L 3002 414 
L 1670 414 
z
" transform="scale(0.015625)"/>
       <path id="CMSS17-56" d="M 3910 4416 
L 3411 4416 
L 2304 1362 
C 2272 1273 2074 688 2035 484 
L 2029 484 
C 1978 726 1773 1292 1664 1604 
L 922 3672 
L 646 4416 
L 83 4416 
L 1715 0 
L 2278 0 
L 3910 4416 
z
" transform="scale(0.015625)"/>
       <path id="CMSY10-39" d="M 3200 4198 
C 3200 4408 3181 4428 2976 4428 
L 576 4428 
C 467 4428 352 4428 352 4300 
C 352 4172 467 4172 576 4172 
L 2944 4172 
L 2944 2363 
L 666 2363 
C 557 2363 442 2363 442 2235 
C 442 2107 557 2107 666 2107 
L 2944 2107 
L 2944 256 
L 576 256 
C 467 256 352 256 352 128 
C 352 0 467 0 576 0 
L 2976 0 
C 3181 0 3200 19 3200 230 
L 3200 4198 
z
" transform="scale(0.015625)"/>
      </defs>
      <use xlink:href="#CMSS17-44" transform="scale(0.996264)"/>
      <use xlink:href="#CMSS17-4c" transform="translate(67.542842 0) scale(0.996264)"/>
      <use xlink:href="#CMSS17-56" transform="translate(107.820238 0) scale(0.996264)"/>
      <use xlink:href="#CMSY10-39" transform="translate(170.038093 36.153639) scale(0.697382)"/>
     </g>
    </g>
    <g id="line2d_44">
     <path d="M 172.553988 54.887221 
L 184.553988 54.887221 
L 196.553988 54.887221 
" style="fill: none; stroke: #1e90ff; stroke-width: 1.5; stroke-linecap: square"/>
     <g>
      <use xlink:href="#m5c86316f6f" x="184.553988" y="54.887221" style="fill: #1e90ff; stroke: #000000; stroke-opacity: 0.9; stroke-width: 0.2; stroke-linejoin: bevel"/>
     </g>
    </g>
    <g id="text_17">
     <!-- Vadalog-I -->
     <g transform="translate(206.153988 59.087221) scale(0.12 -0.12)">
      <defs>
       <path id="CMSS17-6c" d="M 947 4416 
L 474 4416 
L 474 0 
L 947 0 
L 947 4416 
z
" transform="scale(0.015625)"/>
       <path id="CMSS17-67" d="M 2848 2808 
C 2483 2808 2170 2738 1914 2617 
C 1702 2777 1485 2808 1338 2808 
C 781 2808 358 2349 358 1814 
C 358 1468 550 1207 563 1195 
C 448 1035 384 863 384 672 
C 384 448 474 289 544 200 
C 211 -3 166 -314 166 -435 
C 166 -898 749 -1280 1498 -1280 
C 2253 -1280 2835 -898 2835 -428 
C 2835 448 1856 448 1587 448 
L 1069 448 
C 973 448 717 448 717 791 
C 717 921 774 1004 781 1010 
C 877 940 1075 832 1338 832 
C 1869 832 2310 1278 2310 1827 
C 2310 2132 2170 2355 2112 2432 
L 2131 2432 
C 2150 2432 2419 2432 2515 2432 
C 2720 2432 2739 2429 2918 2419 
L 2848 2808 
z
M 1338 1182 
C 1120 1182 813 1315 813 1823 
C 813 2375 1165 2464 1331 2464 
C 1549 2464 1856 2331 1856 1823 
C 1856 1271 1504 1182 1338 1182 
z
M 1581 -10 
C 1734 -10 2381 -10 2381 -442 
C 2381 -714 1984 -929 1504 -929 
C 1018 -929 621 -720 621 -435 
C 621 -403 621 -10 1062 -10 
L 1581 -10 
z
" transform="scale(0.015625)"/>
       <path id="CMSS17-2d" d="M 1664 1216 
L 1664 1585 
L 64 1585 
L 64 1216 
L 1664 1216 
z
" transform="scale(0.015625)"/>
       <path id="CMSS17-49" d="M 1094 4416 
L 557 4416 
L 557 0 
L 1094 0 
L 1094 4416 
z
" transform="scale(0.015625)"/>
      </defs>
      <use xlink:href="#CMSS17-56" transform="scale(0.996264)"/>
      <use xlink:href="#CMSS17-61" transform="translate(59.615401 0) scale(0.996264)"/>
      <use xlink:href="#CMSS17-64" transform="translate(104.537322 0) scale(0.996264)"/>
      <use xlink:href="#CMSS17-61" transform="translate(152.742265 0) scale(0.996264)"/>
      <use xlink:href="#CMSS17-6c" transform="translate(197.664185 0) scale(0.996264)"/>
      <use xlink:href="#CMSS17-6f" transform="translate(219.844908 0) scale(0.996264)"/>
      <use xlink:href="#CMSS17-67" transform="translate(266.688532 0) scale(0.996264)"/>
      <use xlink:href="#CMSS17-2d" transform="translate(313.532155 0) scale(0.996264)"/>
      <use xlink:href="#CMSS17-49" transform="translate(344.761268 0) scale(0.996264)"/>
     </g>
    </g>
    <g id="line2d_45">
     <path d="M 172.553988 71.611816 
L 184.553988 71.611816 
L 196.553988 71.611816 
" style="fill: none; stroke: #ff8c00; stroke-width: 1.5; stroke-linecap: square"/>
     <g>
      <use xlink:href="#m94bb6fc2f8" x="184.553988" y="71.611816" style="fill: #ff8c00; stroke: #000000; stroke-opacity: 0.9; stroke-width: 0.2; stroke-linejoin: miter"/>
     </g>
    </g>
    <g id="text_18">
     <!-- Vadalog-P -->
     <g transform="translate(206.153988 75.811816) scale(0.12 -0.12)">
      <defs>
       <path id="CMSS17-50" d="M 2106 1856 
C 2874 1856 3501 2453 3501 3158 
C 3501 3850 2899 4453 2067 4453 
L 570 4453 
L 570 0 
L 1107 0 
L 1107 1856 
L 2106 1856 
z
M 1926 4096 
C 2669 4096 2995 3627 2995 3157 
C 2995 2720 2694 2226 1926 2226 
L 1094 2226 
L 1094 4096 
L 1926 4096 
z
" transform="scale(0.015625)"/>
      </defs>
      <use xlink:href="#CMSS17-56" transform="scale(0.996264)"/>
      <use xlink:href="#CMSS17-61" transform="translate(59.615401 0) scale(0.996264)"/>
      <use xlink:href="#CMSS17-64" transform="translate(104.537322 0) scale(0.996264)"/>
      <use xlink:href="#CMSS17-61" transform="translate(152.742265 0) scale(0.996264)"/>
      <use xlink:href="#CMSS17-6c" transform="translate(197.664185 0) scale(0.996264)"/>
      <use xlink:href="#CMSS17-6f" transform="translate(219.844908 0) scale(0.996264)"/>
      <use xlink:href="#CMSS17-67" transform="translate(266.688532 0) scale(0.996264)"/>
      <use xlink:href="#CMSS17-2d" transform="translate(313.532155 0) scale(0.996264)"/>
      <use xlink:href="#CMSS17-50" transform="translate(344.761268 0) scale(0.996264)"/>
     </g>
    </g>
   </g>
  </g>
 </g>
 <defs>
  <clipPath id="p49976e8206">
   <rect x="36.008158" y="23.162625" width="357.12" height="266.112"/>
  </clipPath>
 </defs>
</svg>
